<?xml version="1.0" encoding="UTF-8" standalone="no"?><!DOCTYPE svg PUBLIC "-//W3C//DTD SVG 1.1//EN" "http://www.w3.org/Graphics/SVG/1.1/DTD/svg11.dtd"><svg width="100%" height="100%" viewBox="0 0 116 73" version="1.1" xmlns="http://www.w3.org/2000/svg" xmlns:xlink="http://www.w3.org/1999/xlink" xml:space="preserve" xmlns:serif="http://www.serif.com/" style="fill-rule:evenodd;clip-rule:evenodd;stroke-linejoin:round;stroke-miterlimit:1.41421;"><g id="Layer-1" serif:id="Layer 1"><path d="M114.574,49.648c-0.137,-0.33 -0.348,-0.617 -0.633,-0.864c-0.03,-0.028 -0.059,-0.056 -0.09,-0.082c-0.029,-0.029 -0.059,-0.056 -0.09,-0.083c-0.029,-0.028 -0.059,-0.056 -0.09,-0.083c-0.029,-0.028 -0.058,-0.056 -0.089,-0.083c-0.03,-0.028 -0.059,-0.056 -0.091,-0.084c-0.029,-0.027 -0.059,-0.055 -0.09,-0.082c-0.029,-0.028 -0.059,-0.056 -0.09,-0.083c-0.029,-0.028 -0.058,-0.056 -0.089,-0.083c-0.03,-0.028 -0.059,-0.056 -0.09,-0.083c-0.03,-0.028 -0.059,-0.056 -0.09,-0.082c-0.03,-0.029 -0.059,-0.057 -0.091,-0.084c-0.029,-0.028 -0.058,-0.056 -0.089,-0.083c-0.03,-0.027 -0.059,-0.055 -0.09,-0.082c-0.029,-0.028 -0.059,-0.056 -0.09,-0.084c-0.03,-0.028 -0.059,-0.056 -0.091,-0.083c-0.029,-0.028 -0.058,-0.055 -0.089,-0.082c-0.029,-0.028 -0.059,-0.056 -0.09,-0.083c-0.029,-0.028 -0.058,-0.056 -0.09,-0.083c-0.029,-0.028 -0.059,-0.056 -0.091,-0.083c-0.029,-0.028 -0.058,-0.056 -0.088,-0.083c-0.03,-0.027 -0.059,-0.056 -0.09,-0.083c-0.03,-0.028 -0.06,-0.056 -0.091,-0.083c-0.029,-0.028 -0.059,-0.056 -0.09,-0.083c-0.029,-0.028 -0.058,-0.055 -0.089,-0.082c-0.03,-0.028 -0.059,-0.056 -0.091,-0.084c-0.029,-0.027 -0.058,-0.055 -0.089,-0.082c-0.03,-0.028 -0.059,-0.056 -0.091,-0.083c-0.008,-0.009 -0.017,-0.018 -0.026,-0.026c0.058,-0.219 0.117,-0.438 0.173,-0.659c2.1,-8.284 2.94,-12.022 2.948,-12.059c0.08,-0.356 0.008,-0.71 -0.199,-0.974c-0.047,-0.061 -0.101,-0.115 -0.16,-0.162c-0.028,-0.03 -0.058,-0.057 -0.089,-0.083c-0.029,-0.03 -0.059,-0.058 -0.091,-0.083c-0.028,-0.03 -0.058,-0.058 -0.089,-0.083c-0.029,-0.03 -0.059,-0.057 -0.09,-0.083c-0.029,-0.03 -0.059,-0.057 -0.091,-0.083c-0.028,-0.03 -0.058,-0.057 -0.09,-0.083c-0.028,-0.029 -0.058,-0.057 -0.089,-0.082c-0.028,-0.03 -0.058,-0.058 -0.09,-0.084c-0.028,-0.029 -0.059,-0.057 -0.09,-0.082c-0.029,-0.03 -0.059,-0.058 -0.091,-0.084c-0.028,-0.029 -0.058,-0.057 -0.089,-0.083c-0.029,-0.029 -0.059,-0.057 -0.09,-0.082c-0.028,-0.03 -0.058,-0.057 -0.089,-0.083c-0.029,-0.03 -0.059,-0.057 -0.091,-0.083c-0.028,-0.03 -0.058,-0.057 -0.09,-0.083c-0.028,-0.03 -0.059,-0.058 -0.09,-0.083c-0.028,-0.03 -0.058,-0.057 -0.089,-0.083c-0.029,-0.029 -0.059,-0.057 -0.09,-0.083c-0.029,-0.029 -0.059,-0.057 -0.091,-0.083c-0.028,-0.03 -0.058,-0.057 -0.09,-0.082c-0.028,-0.03 -0.058,-0.057 -0.089,-0.083c-0.029,-0.03 -0.059,-0.058 -0.091,-0.084c-0.028,-0.029 -0.058,-0.057 -0.09,-0.083c-0.028,-0.029 -0.058,-0.056 -0.089,-0.082c-0.029,-0.03 -0.059,-0.057 -0.09,-0.083c-0.029,-0.03 -0.059,-0.057 -0.09,-0.083c-0.028,-0.029 -0.059,-0.057 -0.09,-0.083c-0.029,-0.03 -0.059,-0.057 -0.091,-0.084c-0.028,-0.029 -0.058,-0.056 -0.089,-0.082c-0.028,-0.029 -0.058,-0.057 -0.09,-0.083c-0.205,-0.213 -0.494,-0.331 -0.81,-0.325c-0.174,0.003 -0.348,0.015 -0.517,0.036c-1.033,0.127 -2.484,0.66 -3.559,2.467c-0.011,-0.009 -0.022,-0.018 -0.033,-0.027c-0.028,-0.029 -0.058,-0.056 -0.089,-0.082c-0.028,-0.029 -0.058,-0.057 -0.09,-0.083c-0.028,-0.029 -0.058,-0.057 -0.09,-0.083c-0.029,-0.03 -0.059,-0.057 -0.091,-0.083c-0.027,-0.029 -0.057,-0.057 -0.089,-0.083c-0.028,-0.029 -0.058,-0.057 -0.09,-0.083c-0.028,-0.029 -0.058,-0.057 -0.09,-0.083c-0.089,-0.093 -0.197,-0.171 -0.322,-0.227c-0.131,-0.06 -0.618,-0.247 -1.343,-0.158c-1.481,0.182 -2.651,1.281 -3.542,2.614c-0.026,-0.024 -0.052,-0.048 -0.079,-0.071c-0.029,-0.029 -0.059,-0.056 -0.09,-0.083c-0.029,-0.028 -0.059,-0.056 -0.089,-0.083c-0.03,-0.028 -0.06,-0.056 -0.091,-0.083c-0.029,-0.028 -0.059,-0.055 -0.089,-0.082c-0.03,-0.029 -0.06,-0.056 -0.09,-0.084c-0.03,-0.028 -0.06,-0.055 -0.09,-0.082c-0.029,-0.028 -0.059,-0.057 -0.09,-0.083c-0.03,-0.029 -0.06,-0.057 -0.091,-0.084c-0.029,-0.028 -0.059,-0.055 -0.089,-0.082c-0.029,-0.028 -0.059,-0.055 -0.089,-0.082c-0.03,-0.029 -0.06,-0.057 -0.091,-0.084c-0.03,-0.028 -0.059,-0.056 -0.09,-0.083c-0.029,-0.028 -0.059,-0.056 -0.09,-0.083c-0.03,-0.028 -0.059,-0.056 -0.09,-0.083c-0.029,-0.028 -0.059,-0.056 -0.09,-0.083c-0.506,-0.489 -1.218,-0.76 -2.053,-0.781c1.449,-3.315 1.679,-6.21 0.608,-7.783c-0.129,-0.189 -0.275,-0.354 -0.434,-0.497c-0.029,-0.029 -0.06,-0.056 -0.09,-0.083c-0.029,-0.029 -0.06,-0.055 -0.09,-0.082c-0.029,-0.029 -0.059,-0.056 -0.089,-0.083c-0.03,-0.029 -0.06,-0.056 -0.09,-0.083c-0.03,-0.029 -0.06,-0.056 -0.091,-0.083c-0.029,-0.029 -0.059,-0.056 -0.089,-0.083c-0.03,-0.029 -0.06,-0.056 -0.09,-0.083c-0.03,-0.029 -0.06,-0.056 -0.09,-0.083c-0.03,-0.029 -0.06,-0.056 -0.09,-0.083c-0.029,-0.029 -0.06,-0.055 -0.09,-0.082c-0.029,-0.029 -0.06,-0.057 -0.091,-0.084c-0.029,-0.029 -0.059,-0.056 -0.089,-0.083c-0.03,-0.028 -0.06,-0.055 -0.09,-0.082c-0.029,-0.029 -0.06,-0.056 -0.09,-0.083c-0.029,-0.029 -0.06,-0.056 -0.09,-0.083c-0.029,-0.029 -0.06,-0.056 -0.09,-0.083c-0.029,-0.029 -0.06,-0.056 -0.09,-0.083c-0.029,-0.029 -0.059,-0.056 -0.09,-0.083c-0.029,-0.029 -0.06,-0.056 -0.09,-0.084c-0.029,-0.028 -0.06,-0.055 -0.09,-0.082c-0.029,-0.029 -0.059,-0.056 -0.09,-0.083c-0.029,-0.028 -0.059,-0.055 -0.089,-0.082c-0.03,-0.029 -0.061,-0.057 -0.091,-0.084c-0.029,-0.029 -0.06,-0.055 -0.089,-0.082c-0.03,-0.029 -0.06,-0.056 -0.09,-0.083c-0.03,-0.029 -0.06,-0.056 -0.09,-0.083c-0.029,-0.029 -0.06,-0.056 -0.09,-0.083c-0.03,-0.029 -0.06,-0.056 -0.091,-0.084c-0.029,-0.028 -0.059,-0.055 -0.089,-0.082c-0.029,-0.029 -0.06,-0.056 -0.09,-0.083c-0.408,-0.401 -1.348,-1.248 -1.46,-1.343c-0.029,-0.029 -0.059,-0.056 -0.09,-0.083c-0.029,-0.029 -0.059,-0.057 -0.09,-0.083c-0.029,-0.029 -0.059,-0.056 -0.089,-0.083c-0.029,-0.029 -0.06,-0.056 -0.091,-0.083c-0.028,-0.029 -0.058,-0.056 -0.09,-0.083c-0.028,-0.029 -0.059,-0.056 -0.09,-0.083c-0.029,-0.029 -0.059,-0.056 -0.09,-0.083c-0.028,-0.028 -0.058,-0.056 -0.089,-0.082c-0.029,-0.029 -0.059,-0.057 -0.09,-0.083c-0.029,-0.029 -0.059,-0.057 -0.09,-0.083c-0.029,-0.029 -0.059,-0.057 -0.09,-0.083c-0.029,-0.029 -0.059,-0.057 -0.09,-0.083c-0.029,-0.029 -0.059,-0.057 -0.09,-0.083c-0.029,-0.029 -0.059,-0.056 -0.09,-0.083c-0.029,-0.029 -0.059,-0.057 -0.09,-0.083c-0.029,-0.029 -0.059,-0.056 -0.09,-0.083c-0.029,-0.028 -0.059,-0.056 -0.09,-0.083c-0.025,-0.024 -0.051,-0.048 -0.077,-0.072c1.027,-1.343 1.686,-2.592 2.619,-4.387c1.147,0.027 2.051,0.08 2.437,0.102c0.12,0.007 0.264,0.013 0.427,-0.006c0.833,-0.103 1.221,-0.753 1.349,-0.966c0.428,-0.723 0.512,-1.474 0.24,-2.121c-0.132,-0.313 -0.333,-0.568 -0.568,-0.777c-0.029,-0.029 -0.059,-0.056 -0.09,-0.083c-0.029,-0.029 -0.06,-0.056 -0.09,-0.083c-0.029,-0.029 -0.059,-0.056 -0.089,-0.083c-0.03,-0.028 -0.06,-0.055 -0.091,-0.083c-0.029,-0.028 -0.059,-0.056 -0.089,-0.082c-0.03,-0.029 -0.061,-0.057 -0.091,-0.084c-0.029,-0.029 -0.059,-0.056 -0.089,-0.083c-0.03,-0.028 -0.06,-0.055 -0.091,-0.082c-0.028,-0.029 -0.059,-0.056 -0.089,-0.083c-0.029,-0.029 -0.06,-0.056 -0.09,-0.083c-0.03,-0.029 -0.06,-0.056 -0.091,-0.084c-0.029,-0.028 -0.059,-0.055 -0.089,-0.082c-0.029,-0.029 -0.06,-0.056 -0.09,-0.083c-0.029,-0.029 -0.06,-0.056 -0.09,-0.083c-0.03,-0.029 -0.06,-0.056 -0.091,-0.083c-0.029,-0.029 -0.059,-0.055 -0.089,-0.082c-0.029,-0.029 -0.06,-0.057 -0.09,-0.084c-0.029,-0.029 -0.059,-0.055 -0.09,-0.082c-0.029,-0.029 -0.06,-0.057 -0.091,-0.084c-0.004,-0.004 -0.007,-0.009 -0.011,-0.012c0.494,-2.119 0.351,-3.864 -0.442,-4.945c-0.118,-0.162 -0.25,-0.304 -0.392,-0.429c-0.029,-0.028 -0.059,-0.056 -0.09,-0.083c-0.029,-0.028 -0.059,-0.055 -0.088,-0.081c-0.03,-0.029 -0.061,-0.057 -0.092,-0.085c-0.029,-0.028 -0.059,-0.055 -0.089,-0.082c-0.029,-0.028 -0.059,-0.056 -0.089,-0.082c-0.031,-0.029 -0.061,-0.057 -0.092,-0.085c-0.029,-0.028 -0.059,-0.055 -0.089,-0.082c-0.03,-0.028 -0.059,-0.056 -0.09,-0.083c-0.03,-0.028 -0.059,-0.056 -0.09,-0.082c-0.029,-0.029 -0.059,-0.057 -0.09,-0.084c-0.03,-0.028 -0.06,-0.056 -0.091,-0.083c-0.029,-0.028 -0.059,-0.056 -0.089,-0.082c-0.029,-0.029 -0.059,-0.056 -0.089,-0.083c-0.03,-0.029 -0.061,-0.057 -0.092,-0.084c-0.029,-0.028 -0.058,-0.055 -0.088,-0.081c-0.03,-0.029 -0.06,-0.057 -0.091,-0.084c-0.03,-0.029 -0.059,-0.056 -0.089,-0.083c-0.03,-0.028 -0.06,-0.056 -0.09,-0.082c-0.03,-0.029 -0.06,-0.057 -0.091,-0.084c-0.03,-0.029 -0.059,-0.056 -0.089,-0.083c-0.03,-0.028 -0.06,-0.056 -0.09,-0.083c-0.03,-0.028 -0.06,-0.055 -0.09,-0.082c-0.03,-0.029 -0.06,-0.057 -0.091,-0.084c-0.029,-0.028 -0.059,-0.055 -0.089,-0.082c-0.029,-0.028 -0.059,-0.056 -0.09,-0.083c-0.029,-0.028 -0.06,-0.056 -0.09,-0.083c-0.03,-0.029 -0.06,-0.056 -0.09,-0.083c-0.03,-0.028 -0.059,-0.056 -0.09,-0.083c-0.029,-0.028 -0.059,-0.056 -0.09,-0.083c-0.03,-0.028 -0.06,-0.056 -0.09,-0.083c-0.547,-0.529 -1.277,-0.764 -2.098,-0.663c-1.24,0.152 -3.665,1.229 -6.321,6.624c-0.289,0.03 -0.59,0.065 -0.902,0.103c-3.739,0.459 -8.945,1.455 -10.341,2.104c-2.144,0.972 -2.585,3.398 -2.358,4.794c0.071,0.44 0.246,0.708 0.446,0.869c0.029,0.03 0.059,0.058 0.09,0.083c0.029,0.03 0.059,0.058 0.09,0.083c0.029,0.03 0.059,0.058 0.09,0.083c0.029,0.03 0.059,0.058 0.089,0.083c0.03,0.03 0.06,0.058 0.09,0.083c0.03,0.03 0.06,0.058 0.091,0.083c0.029,0.03 0.059,0.058 0.09,0.083c0.029,0.03 0.059,0.058 0.089,0.083c0.03,0.03 0.06,0.058 0.09,0.082c0.03,0.031 0.059,0.058 0.09,0.083c0.03,0.03 0.06,0.058 0.09,0.083c0.029,0.03 0.059,0.058 0.09,0.083c0.029,0.03 0.059,0.058 0.09,0.083c0.03,0.03 0.059,0.058 0.09,0.083c0.007,0.007 0.015,0.013 0.022,0.02c-0.298,0.314 -0.586,0.649 -0.862,1.002c-0.024,-0.024 -0.051,-0.047 -0.077,-0.069c-0.028,-0.029 -0.059,-0.056 -0.091,-0.084c-0.027,-0.028 -0.057,-0.055 -0.088,-0.082c-0.029,-0.028 -0.059,-0.056 -0.091,-0.083c-0.028,-0.028 -0.059,-0.056 -0.09,-0.083c-0.028,-0.028 -0.058,-0.056 -0.09,-0.083c-0.028,-0.028 -0.059,-0.056 -0.09,-0.083c-0.028,-0.028 -0.058,-0.056 -0.09,-0.083c-0.028,-0.028 -0.058,-0.055 -0.09,-0.083c-0.028,-0.028 -0.058,-0.056 -0.09,-0.083c-0.028,-0.028 -0.058,-0.055 -0.089,-0.082c-0.029,-0.028 -0.059,-0.056 -0.091,-0.084c-0.028,-0.028 -0.058,-0.055 -0.09,-0.082c-0.028,-0.029 -0.058,-0.056 -0.089,-0.083c-0.029,-0.029 -0.059,-0.056 -0.091,-0.084c-0.028,-0.027 -0.058,-0.055 -0.089,-0.082c-0.028,-0.028 -0.059,-0.056 -0.09,-0.083c-0.269,-0.269 -0.683,-0.503 -1.321,-0.61c-0.193,-0.033 -0.407,-0.053 -0.639,-0.063c-0.254,-0.606 -0.579,-1.053 -0.894,-1.376c-0.061,-0.063 -0.125,-0.122 -0.19,-0.18c-0.03,-0.028 -0.059,-0.055 -0.089,-0.082c-0.03,-0.029 -0.061,-0.057 -0.091,-0.084c-0.03,-0.028 -0.06,-0.056 -0.09,-0.083c-0.029,-0.028 -0.059,-0.055 -0.089,-0.082c-0.03,-0.028 -0.06,-0.056 -0.09,-0.083c-0.031,-0.029 -0.061,-0.057 -0.092,-0.085c-0.029,-0.027 -0.059,-0.054 -0.088,-0.081c-0.03,-0.028 -0.06,-0.056 -0.091,-0.083c-0.029,-0.028 -0.059,-0.056 -0.089,-0.082c-0.03,-0.029 -0.06,-0.057 -0.09,-0.084c-0.03,-0.028 -0.061,-0.056 -0.091,-0.084c-0.03,-0.027 -0.059,-0.055 -0.089,-0.082c-0.03,-0.028 -0.06,-0.056 -0.09,-0.083c-0.03,-0.028 -0.06,-0.056 -0.091,-0.083c-0.029,-0.028 -0.059,-0.056 -0.09,-0.083c-0.029,-0.028 -0.059,-0.055 -0.089,-0.083c-0.03,-0.027 -0.06,-0.055 -0.09,-0.082c-0.029,-0.028 -0.059,-0.056 -0.09,-0.083c-0.03,-0.028 -0.06,-0.056 -0.091,-0.084c-0.029,-0.028 -0.059,-0.055 -0.089,-0.082c-0.03,-0.028 -0.06,-0.056 -0.09,-0.083c-0.03,-0.028 -0.059,-0.056 -0.089,-0.083c-0.031,-0.028 -0.061,-0.057 -0.092,-0.084c-0.029,-0.027 -0.058,-0.054 -0.087,-0.08c-0.031,-0.029 -0.062,-0.058 -0.093,-0.086c-0.029,-0.027 -0.058,-0.055 -0.088,-0.081c-0.031,-0.029 -0.061,-0.057 -0.092,-0.084c-0.029,-0.028 -0.059,-0.056 -0.088,-0.082c-0.03,-0.028 -0.06,-0.056 -0.09,-0.083c-0.03,-0.028 -0.06,-0.056 -0.091,-0.083c-0.772,-0.734 -1.802,-1.08 -2.85,-0.952c-1.13,0.139 -2.163,0.821 -2.763,1.826c-0.798,1.334 -0.773,3.038 0.071,4.797c0.048,0.101 0.099,0.201 0.152,0.298c-0.85,-0.64 -2.173,-0.936 -3.614,-0.759c-1.104,0.136 -2.586,0.571 -4.254,1.725c0.717,-0.618 1.347,-1.359 1.834,-2.185c1.724,-2.921 2.043,-5.601 0.897,-7.547c-0.233,-0.397 -0.526,-0.754 -0.871,-1.067c-0.029,-0.028 -0.06,-0.056 -0.09,-0.084c-0.03,-0.028 -0.06,-0.055 -0.09,-0.082c-0.029,-0.028 -0.059,-0.055 -0.089,-0.083c-0.03,-0.028 -0.061,-0.056 -0.091,-0.083c-0.029,-0.029 -0.06,-0.056 -0.091,-0.084c-0.028,-0.027 -0.058,-0.054 -0.088,-0.081c-0.03,-0.028 -0.06,-0.056 -0.091,-0.084c-0.029,-0.028 -0.059,-0.055 -0.089,-0.082c-0.03,-0.028 -0.06,-0.056 -0.091,-0.083c-0.029,-0.029 -0.06,-0.056 -0.09,-0.084c-0.029,-0.028 -0.059,-0.054 -0.088,-0.081c-0.03,-0.029 -0.061,-0.057 -0.092,-0.085c-0.029,-0.028 -0.059,-0.055 -0.089,-0.082c-0.029,-0.028 -0.06,-0.055 -0.09,-0.083c-0.03,-0.028 -0.06,-0.056 -0.091,-0.084c-0.029,-0.027 -0.059,-0.054 -0.089,-0.082c-0.029,-0.028 -0.06,-0.055 -0.09,-0.083c-0.03,-0.028 -0.06,-0.056 -0.09,-0.083c-0.029,-0.028 -0.059,-0.055 -0.089,-0.082c-0.03,-0.028 -0.061,-0.056 -0.092,-0.084c-0.029,-0.028 -0.059,-0.055 -0.089,-0.082c-0.029,-0.028 -0.059,-0.055 -0.089,-0.083c-0.03,-0.028 -0.061,-0.056 -0.092,-0.084c-0.029,-0.028 -0.059,-0.055 -0.089,-0.082c-0.028,-0.028 -0.058,-0.055 -0.088,-0.082c-0.03,-0.029 -0.062,-0.057 -0.093,-0.085c-0.029,-0.028 -0.059,-0.055 -0.089,-0.082c-0.029,-0.028 -0.059,-0.055 -0.089,-0.082c-0.029,-0.028 -0.06,-0.056 -0.091,-0.084c-0.029,-0.028 -0.06,-0.056 -0.09,-0.083c-0.524,-0.502 -1.175,-0.897 -1.93,-1.165c-1.131,-0.402 -2.5,-0.519 -3.961,-0.34c-3.004,0.369 -6.31,1.949 -9.31,4.45c-3.087,2.574 -5.457,5.123 -7.246,7.792c-2.223,3.318 -3.564,6.894 -3.987,10.631c-0.318,2.809 0.32,5.098 1.843,6.62c0.104,0.103 0.212,0.203 0.323,0.298c0.03,0.028 0.059,0.057 0.09,0.083c0.03,0.028 0.059,0.057 0.09,0.084c0.031,0.027 0.06,0.056 0.091,0.083c0.03,0.027 0.058,0.056 0.089,0.082c0.03,0.028 0.059,0.056 0.089,0.083c0.031,0.027 0.06,0.056 0.091,0.083c0.03,0.028 0.059,0.057 0.09,0.084c0.03,0.027 0.059,0.055 0.089,0.082c0.031,0.027 0.06,0.056 0.091,0.083c0.03,0.027 0.059,0.056 0.09,0.083c0.03,0.027 0.059,0.056 0.09,0.083c0.03,0.027 0.058,0.056 0.089,0.082c0.03,0.028 0.059,0.057 0.091,0.084c0.03,0.027 0.058,0.056 0.089,0.082c0.031,0.028 0.059,0.057 0.09,0.083c0.031,0.028 0.059,0.057 0.09,0.083c0.031,0.028 0.06,0.057 0.091,0.084c0.03,0.027 0.058,0.056 0.089,0.082c0.03,0.027 0.059,0.057 0.09,0.083c0.031,0.028 0.06,0.057 0.091,0.083c0.03,0.027 0.058,0.056 0.089,0.083c0.03,0.027 0.059,0.056 0.09,0.083c0.015,0.013 0.029,0.028 0.045,0.041c-1.052,0.749 -2.111,1.752 -3.173,3.007c-0.127,0.149 -0.25,0.301 -0.373,0.453c-0.024,-0.023 -0.05,-0.047 -0.077,-0.07c-0.028,-0.028 -0.058,-0.055 -0.09,-0.083c-0.028,-0.027 -0.058,-0.055 -0.089,-0.083c-0.028,-0.027 -0.058,-0.055 -0.09,-0.082c-0.028,-0.028 -0.059,-0.056 -0.091,-0.084c-0.028,-0.028 -0.058,-0.055 -0.089,-0.082c-0.028,-0.028 -0.058,-0.056 -0.09,-0.083c-0.028,-0.028 -0.058,-0.055 -0.09,-0.083c-0.028,-0.028 -0.058,-0.056 -0.09,-0.083c-0.028,-0.028 -0.058,-0.056 -0.09,-0.083c-0.028,-0.028 -0.059,-0.056 -0.09,-0.084c-0.029,-0.027 -0.058,-0.054 -0.089,-0.082c-0.029,-0.027 -0.059,-0.055 -0.092,-0.083c-0.028,-0.028 -0.057,-0.055 -0.088,-0.082c-0.029,-0.028 -0.059,-0.056 -0.091,-0.084c-0.028,-0.027 -0.058,-0.055 -0.09,-0.083c-0.339,-0.331 -0.935,-0.683 -1.893,-0.566l-0.001,0c-1.046,0.129 -2.337,0.818 -3.843,2.05c-0.178,-0.737 -0.448,-1.363 -0.814,-1.87c-0.154,-0.212 -0.345,-0.431 -0.581,-0.636c-0.029,-0.028 -0.059,-0.056 -0.09,-0.083c-0.03,-0.028 -0.058,-0.056 -0.089,-0.083c-0.03,-0.028 -0.059,-0.056 -0.091,-0.083c-0.029,-0.028 -0.058,-0.056 -0.089,-0.083c-0.03,-0.028 -0.059,-0.056 -0.091,-0.083c-0.03,-0.028 -0.058,-0.056 -0.089,-0.083c-0.03,-0.028 -0.059,-0.056 -0.091,-0.083c-0.029,-0.028 -0.058,-0.055 -0.089,-0.083c-0.03,-0.027 -0.059,-0.055 -0.091,-0.083c-0.029,-0.027 -0.058,-0.055 -0.089,-0.082c-0.03,-0.028 -0.059,-0.056 -0.09,-0.083c-0.03,-0.028 -0.059,-0.056 -0.09,-0.083c-0.03,-0.028 -0.059,-0.056 -0.091,-0.084c-0.029,-0.027 -0.058,-0.055 -0.089,-0.082c-0.03,-0.028 -0.059,-0.056 -0.09,-0.083c-0.03,-0.028 -0.059,-0.056 -0.09,-0.083c-0.03,-0.028 -0.059,-0.055 -0.09,-0.083c-0.03,-0.027 -0.059,-0.056 -0.09,-0.083c-0.03,-0.028 -0.059,-0.056 -0.09,-0.083c-0.03,-0.027 -0.059,-0.055 -0.09,-0.082c-0.03,-0.028 -0.058,-0.056 -0.09,-0.083c-0.029,-0.028 -0.058,-0.056 -0.09,-0.084c-0.03,-0.027 -0.058,-0.055 -0.09,-0.082c-0.029,-0.028 -0.058,-0.056 -0.089,-0.083c-0.03,-0.028 -0.059,-0.056 -0.091,-0.083c-0.029,-0.028 -0.058,-0.056 -0.09,-0.083c-0.029,-0.028 -0.058,-0.056 -0.09,-0.083c-0.029,-0.028 -0.058,-0.056 -0.089,-0.083c-0.03,-0.028 -0.059,-0.056 -0.09,-0.083c-0.03,-0.028 -0.059,-0.055 -0.09,-0.083c-0.691,-0.643 -1.794,-1.175 -3.524,-0.962c-0.365,0.045 -0.712,0.248 -0.947,0.557c-0.236,0.308 -0.336,0.69 -0.274,1.042c0.479,2.733 0.095,5.79 -1.176,9.345c-1.156,3.232 -2.876,6.458 -4.539,9.579c-0.608,1.139 -1.182,2.215 -1.733,3.298c-1.31,2.573 -1.566,4.416 -0.783,5.637c0.114,0.178 0.264,0.36 0.46,0.529c0.029,0.028 0.059,0.056 0.09,0.084c0.029,0.027 0.058,0.055 0.09,0.082c0.029,0.028 0.058,0.056 0.09,0.083c0.029,0.028 0.058,0.056 0.09,0.083c0.029,0.028 0.058,0.056 0.09,0.083c0.029,0.028 0.058,0.056 0.089,0.083c0.03,0.028 0.059,0.056 0.091,0.083c0.029,0.028 0.059,0.055 0.09,0.083c0.029,0.028 0.058,0.055 0.089,0.082c0.029,0.028 0.059,0.056 0.09,0.083c0.03,0.028 0.059,0.056 0.091,0.084c0.029,0.028 0.058,0.055 0.089,0.082c0.03,0.028 0.059,0.056 0.09,0.083c0.029,0.028 0.059,0.056 0.09,0.083c0.03,0.028 0.059,0.056 0.091,0.084c0.029,0.027 0.058,0.055 0.089,0.082c0.029,0.028 0.058,0.056 0.09,0.083c0.029,0.027 0.059,0.055 0.09,0.083c0.03,0.028 0.059,0.056 0.091,0.083c0.029,0.028 0.057,0.055 0.089,0.082c0.029,0.028 0.059,0.056 0.09,0.084c0.029,0.028 0.058,0.055 0.09,0.082c0.029,0.028 0.058,0.056 0.09,0.083c0.029,0.028 0.058,0.056 0.09,0.083c0.029,0.028 0.058,0.056 0.09,0.084c0.029,0.027 0.058,0.055 0.089,0.082c0.03,0.028 0.059,0.056 0.091,0.083c0.029,0.028 0.058,0.056 0.09,0.083c0.029,0.028 0.058,0.056 0.09,0.083c0.029,0.028 0.058,0.055 0.09,0.083c0.554,0.528 1.522,0.958 3.217,0.75c0.891,-0.11 1.61,-0.351 1.69,-0.378c0.416,-0.142 0.756,-0.482 0.9,-0.901c0.678,-1.971 1.8,-4.328 3.244,-6.857c-0.561,2.266 -0.391,3.962 0.507,5.049c0.106,0.128 0.222,0.245 0.346,0.353c0.029,0.028 0.059,0.056 0.09,0.083c0.029,0.028 0.059,0.056 0.089,0.083c0.03,0.028 0.06,0.056 0.091,0.083c0.029,0.028 0.059,0.056 0.09,0.083c0.029,0.028 0.059,0.056 0.089,0.083c0.03,0.028 0.06,0.056 0.09,0.082c0.03,0.029 0.06,0.057 0.091,0.084c0.029,0.028 0.058,0.055 0.089,0.082c0.03,0.028 0.06,0.057 0.091,0.084c0.029,0.028 0.058,0.055 0.089,0.082c0.03,0.028 0.059,0.057 0.09,0.083c0.03,0.028 0.059,0.056 0.09,0.083c0.029,0.028 0.059,0.056 0.09,0.083c0.029,0.028 0.059,0.056 0.09,0.083c0.03,0.028 0.06,0.056 0.091,0.083c0.029,0.028 0.058,0.056 0.088,0.082c0.03,0.028 0.06,0.057 0.091,0.083c0.029,0.029 0.059,0.057 0.09,0.084c0.03,0.028 0.059,0.056 0.09,0.082c0.03,0.029 0.059,0.057 0.09,0.084c0.03,0.028 0.059,0.055 0.089,0.082c0.03,0.028 0.06,0.056 0.09,0.083c0.03,0.028 0.06,0.057 0.091,0.083c0.029,0.028 0.059,0.056 0.09,0.083c0.029,0.028 0.059,0.056 0.09,0.083c0.029,0.028 0.059,0.056 0.089,0.083c0.03,0.028 0.059,0.056 0.09,0.083c0.03,0.028 0.06,0.056 0.09,0.083c0.03,0.028 0.06,0.056 0.09,0.083c0.03,0.028 0.059,0.056 0.09,0.082c0.799,0.756 2.006,1.074 3.446,0.897c0.532,-0.064 0.915,-0.177 0.956,-0.19c0.519,-0.157 0.922,-0.616 1.005,-1.146c0.011,-0.07 1.103,-6.83 3.931,-13.536c-0.931,4.118 -1.831,9.559 -1.237,13.42c0.274,1.774 0.921,3.122 1.925,4.022c0.03,0.028 0.06,0.056 0.091,0.083c0.029,0.028 0.059,0.056 0.089,0.083c0.03,0.028 0.06,0.056 0.091,0.083c0.029,0.028 0.059,0.056 0.09,0.083c0.029,0.028 0.059,0.055 0.088,0.082c0.03,0.028 0.06,0.056 0.09,0.083c0.031,0.029 0.061,0.057 0.092,0.085c0.029,0.027 0.059,0.054 0.088,0.081c0.03,0.028 0.06,0.056 0.091,0.083c0.03,0.028 0.06,0.056 0.09,0.083c0.03,0.028 0.06,0.056 0.09,0.084c0.03,0.027 0.059,0.055 0.09,0.082c0.029,0.028 0.059,0.056 0.09,0.083c0.029,0.028 0.059,0.056 0.09,0.083c0.03,0.028 0.06,0.056 0.09,0.083c0.03,0.028 0.059,0.056 0.09,0.083c0.029,0.028 0.059,0.055 0.089,0.082c0.03,0.028 0.06,0.056 0.091,0.084c0.029,0.028 0.059,0.056 0.09,0.083c0.029,0.028 0.059,0.055 0.09,0.083c0.029,0.028 0.059,0.055 0.089,0.082c0.03,0.028 0.06,0.056 0.09,0.083c0.03,0.028 0.06,0.056 0.09,0.083c0.03,0.028 0.06,0.057 0.091,0.084c0.029,0.027 0.059,0.054 0.089,0.081c0.03,0.029 0.06,0.056 0.09,0.084c0.03,0.027 0.059,0.055 0.09,0.082c0.03,0.029 0.06,0.057 0.091,0.085c0.029,0.027 0.059,0.054 0.089,0.081c0.029,0.028 0.059,0.056 0.09,0.083c0.24,0.226 0.5,0.427 0.782,0.6c1.075,0.657 2.408,0.893 3.961,0.702c0.949,-0.117 1.796,-0.375 2.339,-0.572c1.052,-0.381 1.209,-1.192 1.232,-1.432c0.042,-0.439 -0.123,-0.833 -0.437,-1.097c-0.028,-0.029 -0.059,-0.057 -0.09,-0.083c-0.029,-0.029 -0.058,-0.056 -0.09,-0.083c-0.028,-0.028 -0.058,-0.056 -0.09,-0.083c-0.028,-0.029 -0.058,-0.056 -0.09,-0.082c-0.028,-0.03 -0.058,-0.057 -0.089,-0.083c-0.029,-0.03 -0.06,-0.058 -0.091,-0.084c-0.028,-0.029 -0.058,-0.056 -0.089,-0.083c-0.029,-0.028 -0.059,-0.056 -0.09,-0.082c-0.029,-0.029 -0.059,-0.057 -0.091,-0.083c-0.028,-0.029 -0.058,-0.057 -0.09,-0.083c-0.028,-0.029 -0.058,-0.057 -0.089,-0.083c-0.029,-0.029 -0.059,-0.056 -0.09,-0.083c-0.029,-0.029 -0.059,-0.056 -0.09,-0.083c-0.029,-0.029 -0.059,-0.056 -0.09,-0.083c-0.029,-0.029 -0.059,-0.056 -0.09,-0.083c-0.029,-0.029 -0.059,-0.056 -0.09,-0.083c-0.028,-0.029 -0.059,-0.056 -0.09,-0.082c-0.028,-0.029 -0.058,-0.056 -0.09,-0.083c-0.028,-0.029 -0.059,-0.057 -0.09,-0.083c-0.029,-0.029 -0.059,-0.057 -0.09,-0.083c-0.028,-0.029 -0.059,-0.057 -0.09,-0.083c-0.028,-0.029 -0.058,-0.057 -0.09,-0.083c-0.008,-0.009 -0.018,-0.017 -0.027,-0.026c-0.063,-0.139 -0.123,-0.284 -0.18,-0.439c-0.412,-1.135 -0.626,-2.682 -0.636,-4.597c-0.012,-2.083 0.218,-4.321 0.528,-6.375c0.021,0.019 0.042,0.039 0.064,0.058c0.029,0.027 0.059,0.056 0.089,0.083c0.03,0.027 0.059,0.056 0.09,0.083c0.03,0.027 0.059,0.056 0.09,0.083c0.03,0.027 0.06,0.056 0.091,0.083c0.029,0.027 0.058,0.056 0.089,0.082c0.03,0.028 0.059,0.057 0.09,0.084c0.03,0.027 0.059,0.055 0.09,0.082c0.03,0.028 0.059,0.057 0.09,0.083c0.03,0.028 0.059,0.057 0.09,0.083c0.03,0.028 0.059,0.056 0.09,0.083c0.844,0.778 2.01,1.148 3.379,1.05c0.097,-0.007 0.195,-0.016 0.293,-0.028c1.6,-0.197 3.263,-1.055 4.944,-2.552c0.899,-0.801 1.634,-1.635 2.174,-2.314c-0.001,0.008 -0.003,0.017 -0.004,0.025c-0.247,1.854 0.229,3.362 1.345,4.317c0.03,0.028 0.06,0.057 0.091,0.084c0.03,0.027 0.058,0.055 0.088,0.081c0.031,0.028 0.06,0.057 0.092,0.085c0.029,0.027 0.058,0.055 0.089,0.082c0.03,0.028 0.059,0.057 0.09,0.083c0.03,0.028 0.059,0.056 0.09,0.083c0.03,0.027 0.059,0.056 0.09,0.083c0.03,0.027 0.058,0.056 0.089,0.083c0.031,0.027 0.06,0.056 0.091,0.083c0.03,0.027 0.058,0.056 0.09,0.083c0.03,0.027 0.059,0.056 0.09,0.083c0.03,0.027 0.058,0.056 0.09,0.082c0.03,0.028 0.058,0.057 0.09,0.083c0.03,0.028 0.058,0.057 0.089,0.083c0.031,0.028 0.06,0.057 0.091,0.084c0.03,0.027 0.058,0.056 0.089,0.082c0.03,0.028 0.059,0.056 0.09,0.083c0.03,0.028 0.059,0.056 0.091,0.083c0.03,0.028 0.058,0.056 0.089,0.083c0.03,0.027 0.059,0.056 0.09,0.083c0.03,0.027 0.059,0.056 0.09,0.082c0.03,0.028 0.059,0.057 0.09,0.084c0.03,0.027 0.059,0.056 0.09,0.083c0.03,0.027 0.059,0.056 0.09,0.082c0.03,0.028 0.059,0.057 0.09,0.083c0.03,0.028 0.059,0.056 0.09,0.083c0.03,0.027 0.058,0.056 0.089,0.083c0.031,0.028 0.06,0.057 0.092,0.084c0.03,0.027 0.058,0.055 0.089,0.082c0.03,0.027 0.058,0.056 0.09,0.083c0.181,0.166 0.379,0.318 0.597,0.452c1.072,0.659 2.206,0.696 2.331,0.698c0.057,0.001 0.114,-0.002 0.171,-0.009c0.323,-0.04 0.635,-0.205 0.869,-0.463c0.274,-0.303 0.408,-0.702 0.361,-1.078c-0.187,-1.509 0.345,-4.683 1.582,-9.448c0.837,0.885 1.703,1.827 2.587,2.789c2.193,2.387 4.425,4.817 6.585,6.79c0.031,0.029 0.062,0.058 0.094,0.087c0.027,0.025 0.054,0.05 0.081,0.075c0.033,0.03 0.066,0.061 0.099,0.091c0.028,0.026 0.057,0.052 0.085,0.078c0.03,0.028 0.06,0.056 0.09,0.083c0.03,0.027 0.06,0.056 0.09,0.083c0.032,0.029 0.064,0.059 0.095,0.088c0.028,0.026 0.056,0.052 0.084,0.077c0.031,0.028 0.061,0.056 0.091,0.084c0.03,0.028 0.06,0.055 0.09,0.083c0.03,0.028 0.061,0.057 0.092,0.085c0.03,0.027 0.06,0.055 0.089,0.082c0.03,0.027 0.059,0.055 0.088,0.081c0.031,0.029 0.063,0.058 0.094,0.086c0.029,0.027 0.058,0.054 0.087,0.081c0.031,0.028 0.061,0.056 0.091,0.083c0.029,0.028 0.059,0.055 0.088,0.082c0.031,0.028 0.061,0.056 0.091,0.084c0.03,0.027 0.06,0.055 0.09,0.082c0.031,0.029 0.063,0.058 0.094,0.087c0.028,0.026 0.056,0.052 0.085,0.078c0.03,0.028 0.06,0.057 0.091,0.084c0.03,0.028 0.059,0.055 0.089,0.083c0.031,0.028 0.062,0.057 0.093,0.085c0.03,0.028 0.059,0.055 0.089,0.082c0.029,0.027 0.058,0.054 0.087,0.08c0.029,0.027 0.06,0.056 0.09,0.083c0.031,0.029 0.063,0.059 0.095,0.088c0.028,0.026 0.057,0.053 0.086,0.079c0.031,0.028 0.061,0.057 0.092,0.085c1.93,1.772 3.803,3.186 5.539,3.883c2.293,0.921 4.171,1.275 5.738,1.083c1.704,-0.209 3.039,-1.106 3.76,-2.526c0.516,-1.017 0.535,-1.962 0.535,-2.066c0.001,-0.358 -0.15,-0.664 -0.394,-0.861c-0.028,-0.03 -0.058,-0.058 -0.09,-0.083c-0.028,-0.03 -0.058,-0.058 -0.09,-0.084c-0.029,-0.029 -0.058,-0.057 -0.09,-0.082c-0.028,-0.029 -0.058,-0.057 -0.089,-0.083c-0.029,-0.029 -0.059,-0.057 -0.091,-0.083c-0.028,-0.03 -0.058,-0.058 -0.09,-0.084c-0.029,-0.029 -0.058,-0.056 -0.09,-0.082c-0.028,-0.029 -0.058,-0.057 -0.089,-0.083c-0.029,-0.029 -0.059,-0.057 -0.09,-0.083c-0.029,-0.029 -0.059,-0.057 -0.091,-0.083c-0.028,-0.029 -0.058,-0.057 -0.09,-0.083c-0.028,-0.029 -0.058,-0.057 -0.089,-0.083c-0.029,-0.029 -0.058,-0.056 -0.09,-0.082c-0.029,-0.03 -0.058,-0.058 -0.09,-0.083c-0.029,-0.03 -0.059,-0.058 -0.091,-0.084c-0.028,-0.029 -0.057,-0.056 -0.089,-0.082c-0.028,-0.029 -0.058,-0.058 -0.09,-0.083c-0.029,-0.029 -0.058,-0.057 -0.09,-0.083c-0.028,-0.029 -0.058,-0.057 -0.09,-0.083c-0.029,-0.029 -0.058,-0.057 -0.09,-0.083c-0.029,-0.029 -0.058,-0.057 -0.09,-0.083c-0.028,-0.029 -0.058,-0.057 -0.09,-0.083c-0.028,-0.029 -0.058,-0.057 -0.09,-0.083c-0.028,-0.029 -0.058,-0.057 -0.089,-0.082c-0.029,-0.03 -0.059,-0.058 -0.091,-0.084c-0.028,-0.029 -0.058,-0.057 -0.089,-0.082c-0.029,-0.03 -0.059,-0.058 -0.091,-0.084c-0.028,-0.029 -0.058,-0.056 -0.089,-0.082c-0.029,-0.029 -0.059,-0.057 -0.091,-0.083c-0.028,-0.029 -0.058,-0.057 -0.089,-0.083c-0.205,-0.211 -0.497,-0.334 -0.83,-0.321c-2.709,0.1 -5.562,-0.893 -8.722,-3.035c-0.553,-0.374 -1.102,-0.775 -1.647,-1.195c0.762,-0.146 1.916,-0.578 3.153,-1.796c0.594,0.499 1.405,0.714 2.363,0.596c0.127,-0.015 0.258,-0.037 0.391,-0.064c0.574,-0.117 1.041,-0.61 1.126,-1.19c0.082,-0.555 0.234,-1.243 0.438,-1.998c0.01,0.008 0.019,0.017 0.03,0.025c0.03,0.028 0.058,0.058 0.09,0.084c0.03,0.027 0.058,0.057 0.09,0.083c0.03,0.027 0.058,0.056 0.09,0.082c0.03,0.028 0.058,0.057 0.089,0.083c0.03,0.028 0.059,0.057 0.09,0.083c0.031,0.028 0.059,0.057 0.091,0.083c0.03,0.028 0.058,0.057 0.089,0.083c0.03,0.028 0.059,0.057 0.09,0.083c0.03,0.027 0.059,0.057 0.09,0.083c0.031,0.028 0.059,0.057 0.09,0.082c0.03,0.028 0.059,0.058 0.09,0.084c0.03,0.027 0.058,0.057 0.09,0.082c0.03,0.028 0.059,0.058 0.09,0.084c0.03,0.027 0.059,0.057 0.09,0.083c0.03,0.027 0.059,0.056 0.09,0.082c0.03,0.027 0.058,0.057 0.09,0.083c0.03,0.028 0.058,0.057 0.09,0.083c0.03,0.028 0.058,0.057 0.09,0.083c0.03,0.028 0.058,0.057 0.09,0.083c0.03,0.028 0.058,0.057 0.09,0.083c0.4,0.364 0.908,0.603 1.506,0.694c0.309,0.047 0.626,0.051 0.946,0.012c1.26,-0.155 2.408,-0.956 3.378,-1.951c0.013,0.011 0.025,0.023 0.038,0.034c0.029,0.028 0.059,0.056 0.089,0.082c0.03,0.028 0.06,0.057 0.09,0.084c0.03,0.028 0.06,0.056 0.09,0.082c0.03,0.028 0.059,0.057 0.09,0.083c0.03,0.028 0.06,0.057 0.091,0.084c0.029,0.028 0.058,0.055 0.088,0.081c0.03,0.029 0.061,0.058 0.092,0.085c0.556,0.53 1.306,0.763 2.15,0.659c0.79,-0.097 1.634,-0.475 2.511,-1.122c0.488,-0.361 0.95,-0.779 1.371,-1.204c0.022,0.021 0.044,0.041 0.067,0.061c0.029,0.027 0.058,0.055 0.089,0.082c0.029,0.028 0.059,0.056 0.089,0.083c0.031,0.028 0.061,0.057 0.092,0.084c0.029,0.027 0.058,0.055 0.088,0.081c0.03,0.028 0.059,0.056 0.09,0.083c0.03,0.029 0.06,0.057 0.091,0.084c0.645,0.606 1.476,0.956 2.417,0.98c-1.304,1.347 -2.19,2.734 -2.521,3.987c-0.383,1.45 -0.061,2.693 0.902,3.578c0.029,0.028 0.06,0.056 0.091,0.084c0.028,0.028 0.059,0.054 0.089,0.082c0.029,0.028 0.06,0.056 0.091,0.083c0.028,0.029 0.06,0.055 0.089,0.083c0.029,0.028 0.06,0.055 0.09,0.082c0.029,0.029 0.06,0.056 0.09,0.084c0.029,0.028 0.06,0.055 0.09,0.083c0.029,0.028 0.06,0.055 0.09,0.082c0.029,0.029 0.06,0.056 0.09,0.084c0.029,0.028 0.06,0.054 0.089,0.082c0.03,0.028 0.061,0.056 0.091,0.083c0.029,0.029 0.06,0.056 0.09,0.083c0.029,0.029 0.059,0.055 0.089,0.083c0.03,0.028 0.061,0.056 0.092,0.084c0.028,0.027 0.058,0.054 0.087,0.081c0.03,0.028 0.061,0.056 0.092,0.084c0.029,0.028 0.06,0.055 0.09,0.083c0.028,0.028 0.059,0.055 0.089,0.082c0.029,0.029 0.06,0.056 0.091,0.084c0.028,0.028 0.059,0.054 0.089,0.082c0.029,0.028 0.06,0.056 0.091,0.084c0.029,0.028 0.06,0.055 0.09,0.083c0.028,0.028 0.059,0.054 0.089,0.082c0.029,0.028 0.06,0.055 0.09,0.083c0.029,0.028 0.06,0.055 0.09,0.083c0.029,0.028 0.06,0.055 0.09,0.083c0.029,0.028 0.06,0.055 0.09,0.083c0.029,0.028 0.06,0.055 0.09,0.083c0.029,0.028 0.06,0.055 0.09,0.083c0.029,0.028 0.06,0.055 0.09,0.082c0.212,0.209 0.458,0.4 0.739,0.57c1.293,0.781 2.646,1.092 4.023,0.923c3.576,-0.439 6.916,-4.028 9.459,-10.139c1.076,-0.001 2.183,0.123 3.303,0.37c0.132,0.029 0.267,0.034 0.401,0.018c0.372,-0.046 0.731,-0.257 0.971,-0.588c0.418,-0.578 0.768,-1.588 0.377,-2.532" style="fill-rule:nonzero;"/><g><path d="M55.627,43.995c3.34,-1.125 6.641,-3.038 9.168,-6.157c3.775,-4.658 0.547,-6.38 -0.844,-6.873c-0.335,-0.118 -0.512,0.337 -0.514,0.601c-0.017,1.749 -0.859,3.857 -2.596,6.128c-1.755,2.294 -4.674,3.663 -7.214,4.479c0.866,-2.978 1.678,-5.573 2.059,-6.929c1.081,-3.838 -2.561,-3.826 -2.561,-3.826c-0.058,1.907 -1.136,5.756 -2.337,9.755c-6.796,-2.4 -8.037,4.343 -3.603,4.25c0.747,-0.016 1.538,-0.061 2.356,-0.143c-0.987,3.252 -1.845,6.18 -2.053,7.738c-0.541,4.062 3.126,4.12 3.126,4.12c-0.288,-2.324 0.906,-7.423 2.233,-12.221c5.162,4.077 12.961,15.004 18.566,17.254c8.199,3.293 8.218,-2.192 8.218,-2.192c-9.132,0.337 -16.764,-10.379 -24.004,-15.984" style="fill:#fff;fill-rule:nonzero;"/><path d="M69.998,31.156c-0.053,0.006 -0.107,0.015 -0.16,0.027c-0.973,0.214 -1.873,1.271 -2.007,2.356c-0.068,0.543 0.062,1.011 0.366,1.319c0.261,0.263 0.631,0.381 1.043,0.33c0.052,-0.006 0.106,-0.015 0.16,-0.027c0.972,-0.214 1.873,-1.271 2.007,-2.356c0.068,-0.543 -0.063,-1.012 -0.366,-1.319c-0.261,-0.264 -0.631,-0.381 -1.043,-0.33" style="fill:#fff;fill-rule:nonzero;"/><path d="M97.607,55.976c-4.308,2.284 -1.754,-4.946 5.55,-6.928c-1.299,2.799 -3.134,5.647 -5.55,6.928m-6.797,-29.869c2.346,-4.439 1.821,-0.85 1.041,1.429c-1.466,4.279 -3.3,6.943 -4.804,8.632c0,0 1.418,-5.622 3.763,-10.061m5.758,9.221c1.755,-0.385 -1.645,5.413 -4.224,5.538c-0.008,0.004 1.609,-5.3 4.224,-5.538m10.175,11.018c0.335,-1.029 0.646,-2.105 0.929,-3.221c2.12,-8.362 2.939,-12.023 2.939,-12.023c-3.276,0.059 -3.715,4.099 -4.18,5.458c-0.606,1.773 -2.34,6.677 -3.624,6.954c-2.775,0.598 2.256,-10.842 2.256,-10.842c0,0 -2.303,-1.039 -4.465,4.226c-0.323,0.786 -0.59,1.542 -0.806,2.262c-1.307,1.48 -4.002,4.318 -6.12,5.025c-1.988,0.662 -1.736,-1.398 -1.738,-1.402c0.014,-0.02 3.952,-0.625 6.487,-5.983c2.533,-5.304 -4.91,-5.238 -8.55,2.671c-0.414,0.901 -0.69,1.74 -0.85,2.509c-0.372,0.597 -0.789,1.209 -1.238,1.77c-0.892,1.116 -2.453,2.025 -2.275,-0.474c0.137,-1.919 0.845,-4.376 0.845,-4.376c0,0 3.42,-1.97 6.939,-9.725c4.014,-8.847 -2.33,-11.856 -7.417,2.052c-1.779,4.865 -2.748,8.447 -3.149,11.02c-1.055,1.679 -2.652,3.929 -3.481,3.642c-0.842,-0.29 0.711,-4.473 0.996,-6.284c0.286,-1.811 0.158,-3.853 -1.869,-3.773c-1.744,0.067 -3.515,2.379 -4.328,4.254c0,0 0.897,-2.846 1.072,-3.771c0,0 -2.667,-0.775 -3.605,3.083c-0.272,1.118 -0.677,2.507 -1.021,3.963c-0.655,2.122 -2.411,4.556 -3.005,4.629c-0.022,0.002 -0.044,0.002 -0.065,0c-0.17,-0.022 -0.295,-0.122 -0.383,-0.305c-0.844,-1.763 2.245,-9.814 2.487,-10.324c0.008,-0.014 0.013,-0.029 0.016,-0.044c0.011,-0.06 -0.021,-0.114 -0.076,-0.129c-0.284,-0.078 -0.568,-0.1 -0.846,-0.066c-2.155,0.264 -3.316,3.75 -3.441,4.146c-0.5,1.579 -2.024,6.881 -0.654,8.787c0.352,0.49 0.869,0.725 1.537,0.7c0.08,-0.003 0.161,-0.01 0.242,-0.02c0.673,-0.082 2.147,-0.529 3.677,-2.7c0.241,1.066 0.971,1.7 2.408,1.408c0.491,-3.336 3.103,-10.209 4.421,-10.417c1.809,-0.286 -3.082,8.988 0.907,9.596c1.913,0.291 3.765,-2.022 4.792,-3.604c0.086,3.478 1.997,3.469 3.881,2.076c0.848,-0.627 1.746,-1.566 2.543,-2.589c0.3,1.699 1.402,2.67 2.794,2.653c3.108,-0.039 5.818,-2.605 7.442,-4.973c-0.259,2.691 0.569,4.284 2.366,3.88c2.785,-0.627 4.083,-4.143 4.083,-4.143c0,0 -0.466,2.088 -1.444,4.692c-6.822,1.497 -14.361,8.799 -10.192,11.319c4.482,2.71 8.963,-1.615 11.964,-9.343c1.38,-0.087 2.881,0.013 4.494,0.368c0,0 1.785,-2.465 -3.695,-2.612" style="fill:#fff;fill-rule:nonzero;"/><path d="M43.582,46.068c-4.292,7.081 -7.579,5.685 -7.533,3.116c0.06,-3.372 3.006,-6.665 4.949,-6.98c1.943,-0.315 -0.886,3.711 -0.886,3.711c3.966,-1.148 4.495,-5.56 1.444,-5.507c-3.137,0.055 -6.388,2.589 -8.171,6.489c-1.865,4.081 -0.626,7.399 2.743,7.158c3.084,-0.22 6.04,-3.673 7.222,-5.451c1.306,-1.966 0.232,-2.536 0.232,-2.536" style="fill:#fff;fill-rule:nonzero;"/><path d="M33.046,67.562c-4.521,-1.509 -3.241,-12.285 -1.443,-19.941c1.817,-7.742 5.494,-13.399 1.197,-13.615c-4.694,-0.237 -9.083,6.851 -10.878,10.175c0.267,-0.835 0.555,-2.071 0.799,-3.897c0.661,-4.957 -2.685,-2.976 -5.164,-0.771c-1.792,1.594 -4.036,4.366 -5.143,5.78c0.266,-0.663 4.048,-12.798 -2.52,-11.992c1.363,7.765 -3.945,15.901 -7.58,23.04c-3.635,7.139 3.139,4.82 3.139,4.82c3.388,-9.836 15.368,-24.362 14.541,-20.708c-0.826,3.655 -4.131,9.68 -6.031,16.441c-1.9,6.761 3.635,5.09 3.635,5.09c0,0 1.157,-7.331 4.297,-14.493c3.139,-7.161 11.236,-14.683 8.923,-9.358c-2.314,5.324 -6.362,19.042 -5.288,26.016c0.866,5.627 5.605,4.486 7.404,3.834c0.43,-0.155 0.296,-0.359 0.112,-0.421" style="fill:#fff;fill-rule:nonzero;"/><path d="M61.663,13.373c-0.036,-1.18 1.598,-1.244 1.27,2.003c0,0 -1.223,-0.477 -1.27,-2.003m16.006,2.833c1.754,-0.385 -1.645,5.413 -4.225,5.539c-0.008,0.004 1.61,-5.3 4.225,-5.539m11.344,-10.515c2.346,-4.44 1.821,-0.85 1.041,1.429c-0.061,0.176 -0.122,0.349 -0.184,0.521c-0.549,-0.021 -1.151,-0.03 -1.794,-0.018c0.293,-0.655 0.606,-1.305 0.937,-1.932m-3.763,10.061c0,0 0.643,-2.551 1.78,-5.573c0.623,-0.045 1.241,-0.073 1.842,-0.09c-1.198,2.605 -2.502,4.405 -3.622,5.663m-41.329,6.468c1.763,-0.172 3.337,-0.221 4.296,0.077c-3.306,4.83 -1.776,9.348 0.963,8.726c2.974,-0.675 4.647,-3.421 4.647,-3.421c0.31,0.891 0.868,2.179 2.603,2.035c3.375,-0.279 5.737,-5.534 6.777,-8.389c0.383,-0.835 0.703,-1.751 1.028,-2.954c0.884,0.092 1.539,-0.012 1.539,-0.012c0,0 -4.899,10.054 0.527,10.787c1.689,0.228 3.315,-1.804 3.993,-2.781c0.477,1.133 1.41,1.762 2.532,1.748c2.763,-0.034 5.996,-2.616 8.013,-5.562c-0.704,5.567 1.542,5.838 3.752,4.204c2.946,-2.178 6.489,-8.113 4.346,-8.317c0,0 -1.255,2.852 -2.951,4.973c-0.892,1.116 -2.453,2.025 -2.275,-0.474c0.137,-1.919 0.844,-4.376 0.844,-4.376c0,0 3.029,-1.746 6.319,-8.413c1.481,0.013 2.696,0.08 3.338,0.117c0.284,0.017 0.351,0.003 0.514,-0.269c0.782,-1.321 -0.931,-1.914 -1.766,-2.016c-0.123,-0.013 -0.494,-0.066 -1.055,-0.122c2.865,-7.404 -1.992,-9.934 -6.593,0.024c-0.093,0.011 -0.186,0.022 -0.279,0.033c-3.964,0.375 -10.07,1.551 -11.324,2.142c-1.941,0.874 -1.578,3.585 -1.458,3.525c3.304,-1.67 8.038,-2.449 11.943,-3.003c-0.039,0.103 -0.078,0.204 -0.116,0.309c-1.287,3.518 -2.149,6.364 -2.68,8.645c-0.953,1.12 -4.176,4.79 -6.625,5.607c-1.989,0.662 -1.737,-1.397 -1.738,-1.402c0.014,-0.019 3.952,-0.624 6.486,-5.983c2.533,-5.303 -4.909,-5.238 -8.549,2.672c-0.696,1.512 -1.003,2.851 -1.02,3.972c-0.688,0.924 -1.758,2.156 -2.491,2.03c-2.297,-0.392 2.087,-9.771 2.087,-9.771c-0.105,-0.777 -1.518,-0.85 -3.669,-0.534c-0.474,0.07 -0.863,0.097 -1.182,0.094c1.042,-7.738 -7.243,-6.15 -4.549,-0.532c0.588,1.227 1.511,1.911 2.441,2.287c-0.419,1.065 -1.075,2.539 -2.07,4.691c-0.156,0.337 -0.277,0.632 -0.369,0.889l-0.003,0.003c-1.425,2.716 -2.416,3.891 -3.098,3.231c-0.681,-0.66 -0.641,-2.071 0.124,-4.601c0.682,-2.253 -1.549,-1.917 -1.549,-1.917c-0.13,1.14 -2.004,4.73 -3.78,6.724c-1.983,2.226 -3.036,0.992 -2.169,-1.531c0.828,-2.407 3.237,-5.227 4.71,-5.846c2.292,-0.963 3.532,0.93 3.532,0.93c0,0 1.611,-1.004 0.867,-2.4c-0.743,-1.396 -5.081,-2.289 -9.604,2.977c-0.22,0.256 -0.426,0.512 -0.618,0.768c-0.22,-0.971 -1.065,-2.639 -4.296,-2.272c-4.504,0.513 -10.28,1.306 -11.265,0.467c0,0 -1.055,2.605 2.025,2.996c1.554,0.197 4.44,-0.257 7.203,-0.596c-1.87,5.392 -5.589,7.981 -9.656,8.361c-4.214,0.393 -5.081,-7.185 0.248,-14.904c5.329,-7.72 15.243,-12.408 14.252,-6.46c-0.545,3.266 -3.016,4.921 -4.144,5.518c-0.346,0.182 -0.105,0.517 0.16,0.589c1.85,0.507 4.697,-0.71 6.215,-3.283c4.94,-8.37 -4.315,-11.637 -13.323,-4.127c-5.143,4.288 -9.852,9.824 -10.72,17.491c-1.313,11.605 15.476,8.164 19.147,-0.43c0.724,-1.693 0.202,-2.53 -0.487,-2.944" style="fill:#fff;fill-rule:nonzero;"/></g><path d="M17.022,61.717c0,0 -0.006,-0.251 0.014,-0.692c0.015,-0.221 0.026,-0.49 0.06,-0.798c0.017,-0.154 0.029,-0.318 0.051,-0.491c0.023,-0.173 0.047,-0.355 0.072,-0.544c0.056,-0.38 0.118,-0.791 0.203,-1.225c0.043,-0.217 0.086,-0.439 0.131,-0.667c0.042,-0.228 0.106,-0.459 0.159,-0.695c0.109,-0.472 0.232,-0.957 0.374,-1.449c0.067,-0.246 0.142,-0.493 0.22,-0.74c0.076,-0.248 0.154,-0.496 0.231,-0.745c0.167,-0.494 0.348,-0.985 0.518,-1.47c0.182,-0.482 0.382,-0.951 0.563,-1.407c0.19,-0.454 0.395,-0.886 0.581,-1.297c0.179,-0.414 0.389,-0.791 0.566,-1.145c0.181,-0.352 0.341,-0.676 0.506,-0.954c0.158,-0.281 0.302,-0.523 0.419,-0.723c0.115,-0.2 0.212,-0.354 0.276,-0.461c0.064,-0.106 0.098,-0.162 0.098,-0.162l0.033,0.013c0,0 -0.116,0.235 -0.318,0.647c-0.101,0.205 -0.224,0.455 -0.365,0.742c-0.146,0.283 -0.284,0.615 -0.448,0.971c-0.081,0.178 -0.165,0.364 -0.252,0.556c-0.043,0.097 -0.087,0.195 -0.132,0.294c-0.042,0.1 -0.084,0.202 -0.127,0.306c-0.17,0.414 -0.355,0.848 -0.535,1.301c-0.172,0.456 -0.35,0.926 -0.531,1.405c-0.165,0.482 -0.34,0.97 -0.501,1.461c-0.078,0.246 -0.157,0.493 -0.235,0.738c-0.08,0.244 -0.157,0.489 -0.225,0.733c-0.142,0.486 -0.283,0.966 -0.4,1.432c-0.126,0.466 -0.231,0.918 -0.332,1.346c-0.052,0.214 -0.093,0.424 -0.136,0.625c-0.042,0.203 -0.087,0.398 -0.121,0.586c-0.07,0.375 -0.136,0.72 -0.183,1.025c-0.053,0.306 -0.087,0.573 -0.119,0.793c-0.057,0.439 -0.078,0.689 -0.078,0.689l-0.037,0.002Z" style="fill:#d1d3d4;fill-rule:nonzero;"/><path d="M31.567,67.628c0,0 -0.07,-0.075 -0.188,-0.227c-0.119,-0.151 -0.289,-0.377 -0.478,-0.685c-0.093,-0.155 -0.199,-0.325 -0.301,-0.519c-0.108,-0.19 -0.211,-0.404 -0.322,-0.632c-0.058,-0.113 -0.108,-0.235 -0.162,-0.359c-0.053,-0.125 -0.112,-0.252 -0.164,-0.385c-0.051,-0.134 -0.1,-0.274 -0.151,-0.416c-0.054,-0.142 -0.098,-0.291 -0.143,-0.443c-0.045,-0.153 -0.092,-0.308 -0.139,-0.467c-0.039,-0.162 -0.079,-0.326 -0.12,-0.494c-0.02,-0.083 -0.041,-0.168 -0.062,-0.253c-0.016,-0.087 -0.032,-0.174 -0.049,-0.262c-0.033,-0.177 -0.066,-0.356 -0.1,-0.538c-0.029,-0.183 -0.049,-0.37 -0.074,-0.559c-0.022,-0.19 -0.054,-0.38 -0.063,-0.578c-0.027,-0.392 -0.057,-0.794 -0.047,-1.208c0.001,-0.208 0.002,-0.419 0.003,-0.631c0.011,-0.207 0.022,-0.415 0.034,-0.625c0.021,-0.419 0.046,-0.844 0.074,-1.272c0.009,-0.213 0.039,-0.433 0.06,-0.65c0.023,-0.218 0.047,-0.437 0.07,-0.656c0.023,-0.219 0.047,-0.439 0.07,-0.659c0.023,-0.22 0.044,-0.44 0.081,-0.659c0.068,-0.438 0.137,-0.876 0.205,-1.313c0.034,-0.218 0.068,-0.436 0.102,-0.653c0.042,-0.217 0.084,-0.433 0.127,-0.648c0.166,-0.86 0.335,-1.707 0.543,-2.52c0.099,-0.408 0.193,-0.809 0.294,-1.2c0.047,-0.196 0.105,-0.388 0.16,-0.579c0.055,-0.19 0.109,-0.378 0.163,-0.563c0.217,-0.741 0.407,-1.443 0.624,-2.084c0.204,-0.643 0.404,-1.229 0.581,-1.748c0.191,-0.517 0.358,-0.967 0.496,-1.337c0.135,-0.371 0.251,-0.659 0.326,-0.857c0.076,-0.198 0.117,-0.303 0.117,-0.303l0.035,0.008c0,0 -0.14,0.427 -0.384,1.173c-0.122,0.373 -0.27,0.826 -0.44,1.346c-0.155,0.522 -0.329,1.112 -0.52,1.756c-0.2,0.641 -0.372,1.344 -0.569,2.085c-0.049,0.185 -0.099,0.373 -0.148,0.563c-0.05,0.19 -0.103,0.382 -0.145,0.578c-0.089,0.391 -0.18,0.79 -0.272,1.196c-0.046,0.203 -0.093,0.408 -0.14,0.614c-0.023,0.103 -0.046,0.206 -0.069,0.31c-0.02,0.104 -0.04,0.209 -0.06,0.314c-0.08,0.419 -0.16,0.843 -0.242,1.271c-0.04,0.214 -0.081,0.428 -0.122,0.644c-0.032,0.215 -0.065,0.432 -0.098,0.648c-0.065,0.434 -0.13,0.869 -0.196,1.305c-0.037,0.217 -0.059,0.435 -0.083,0.652c-0.025,0.218 -0.049,0.435 -0.073,0.652c-0.024,0.217 -0.049,0.433 -0.073,0.649c-0.022,0.216 -0.053,0.431 -0.063,0.645c-0.03,0.428 -0.059,0.853 -0.087,1.273c-0.015,0.21 -0.029,0.419 -0.043,0.626c-0.004,0.206 -0.007,0.41 -0.011,0.613c-0.017,0.406 0.012,0.8 0.026,1.188c0.003,0.194 0.03,0.382 0.047,0.57c0.02,0.187 0.034,0.373 0.058,0.554c0.029,0.179 0.057,0.357 0.084,0.531c0.014,0.088 0.028,0.175 0.042,0.261c0.018,0.084 0.036,0.168 0.054,0.252c0.035,0.166 0.071,0.33 0.105,0.49c0.042,0.159 0.084,0.313 0.124,0.465c0.076,0.306 0.18,0.586 0.265,0.858c0.045,0.135 0.098,0.263 0.145,0.389c0.048,0.125 0.092,0.249 0.144,0.363c0.099,0.232 0.192,0.448 0.291,0.641c0.092,0.198 0.189,0.371 0.274,0.529c0.175,0.313 0.326,0.551 0.435,0.708c0.107,0.158 0.172,0.236 0.172,0.236l-0.03,0.026Z" style="fill:#d1d3d4;fill-rule:nonzero;"/><path d="M41.731,44.872c0,0 0.022,-0.064 0.065,-0.168c0.044,-0.105 0.106,-0.252 0.188,-0.42c0.039,-0.084 0.081,-0.175 0.13,-0.268c0.045,-0.093 0.094,-0.191 0.144,-0.292c0.052,-0.1 0.101,-0.203 0.155,-0.305c0.05,-0.104 0.105,-0.207 0.152,-0.311c0.051,-0.102 0.096,-0.205 0.14,-0.305c0.042,-0.101 0.086,-0.197 0.118,-0.292c0.028,-0.095 0.063,-0.186 0.082,-0.272c0.011,-0.044 0.018,-0.086 0.025,-0.126c0.01,-0.042 0.015,-0.081 0.018,-0.119c0.006,-0.04 0.004,-0.075 0.005,-0.111c0.003,-0.037 0.003,-0.072 -0.002,-0.103c-0.004,-0.066 -0.014,-0.123 -0.023,-0.173c-0.011,-0.048 -0.023,-0.086 -0.03,-0.114c-0.008,-0.028 -0.012,-0.043 -0.012,-0.043l0.029,-0.028c0,0 0.009,0.011 0.026,0.031c0.017,0.021 0.046,0.048 0.074,0.089c0.027,0.042 0.062,0.092 0.089,0.158c0.016,0.032 0.029,0.067 0.04,0.106c0.012,0.038 0.023,0.079 0.029,0.124c0.008,0.043 0.014,0.089 0.015,0.139c0.005,0.048 0.004,0.099 0.001,0.151c-0.004,0.104 -0.022,0.214 -0.046,0.328c-0.027,0.112 -0.06,0.228 -0.103,0.343c-0.041,0.116 -0.09,0.231 -0.144,0.345c-0.219,0.453 -0.509,0.87 -0.736,1.172c-0.23,0.301 -0.403,0.487 -0.403,0.487l-0.026,-0.023Z" style="fill:#d1d3d4;fill-rule:nonzero;"/><path d="M38.778,43.033c0,0 -0.038,0.024 -0.11,0.069c-0.035,0.023 -0.08,0.051 -0.131,0.084c-0.049,0.038 -0.105,0.08 -0.167,0.128c-0.064,0.046 -0.129,0.105 -0.199,0.17c-0.072,0.063 -0.148,0.132 -0.223,0.214c-0.077,0.079 -0.159,0.163 -0.238,0.259c-0.041,0.048 -0.082,0.096 -0.125,0.145c-0.041,0.05 -0.08,0.104 -0.122,0.158c-0.041,0.054 -0.085,0.108 -0.126,0.165c-0.041,0.058 -0.082,0.117 -0.124,0.177c-0.086,0.119 -0.164,0.249 -0.247,0.379c-0.084,0.131 -0.159,0.272 -0.242,0.412c-0.074,0.144 -0.155,0.29 -0.228,0.442c-0.072,0.152 -0.147,0.305 -0.213,0.465c-0.07,0.158 -0.133,0.32 -0.194,0.484c-0.064,0.163 -0.115,0.331 -0.172,0.499c-0.047,0.169 -0.103,0.337 -0.141,0.508c-0.092,0.341 -0.148,0.685 -0.188,1.023c-0.036,0.339 -0.036,0.67 -0.007,0.984c0.038,0.312 0.117,0.602 0.233,0.855c0.126,0.248 0.292,0.451 0.479,0.6c0.046,0.039 0.099,0.064 0.147,0.097c0.05,0.027 0.093,0.065 0.146,0.082c0.051,0.021 0.101,0.042 0.15,0.061c0.048,0.021 0.095,0.04 0.145,0.049c0.098,0.021 0.188,0.048 0.274,0.06c0.088,0.009 0.168,0.016 0.241,0.023c0.072,0.01 0.139,0.005 0.197,0.004c0.058,-0.002 0.107,-0.003 0.147,-0.004c0.079,-0.003 0.122,-0.004 0.122,-0.004l-0.002,0.038c0,0 -0.043,0.007 -0.125,0.021c-0.04,0.006 -0.091,0.015 -0.151,0.025c-0.06,0.01 -0.129,0.024 -0.206,0.022c-0.077,0.002 -0.163,0.003 -0.257,0.006c-0.094,-0.002 -0.192,-0.022 -0.3,-0.035c-0.055,-0.004 -0.108,-0.019 -0.163,-0.036c-0.056,-0.017 -0.113,-0.034 -0.171,-0.052c-0.061,-0.013 -0.112,-0.05 -0.17,-0.077c-0.056,-0.031 -0.118,-0.056 -0.173,-0.095c-0.223,-0.149 -0.431,-0.364 -0.585,-0.636c-0.146,-0.274 -0.253,-0.589 -0.302,-0.928c-0.017,-0.169 -0.042,-0.342 -0.041,-0.518c0,-0.088 -0.007,-0.177 -0.001,-0.266c0.006,-0.089 0.012,-0.178 0.018,-0.268c0.037,-0.359 0.092,-0.723 0.183,-1.079c0.041,-0.18 0.103,-0.355 0.154,-0.532c0.062,-0.173 0.118,-0.348 0.186,-0.517c0.034,-0.085 0.068,-0.17 0.101,-0.254c0.035,-0.083 0.076,-0.164 0.113,-0.246c0.073,-0.163 0.157,-0.321 0.237,-0.476c0.081,-0.155 0.166,-0.305 0.253,-0.45c0.093,-0.142 0.178,-0.283 0.272,-0.415c0.182,-0.266 0.37,-0.509 0.561,-0.719c0.091,-0.106 0.184,-0.206 0.278,-0.296c0.089,-0.091 0.182,-0.172 0.269,-0.247c0.085,-0.077 0.169,-0.144 0.251,-0.201c0.079,-0.06 0.152,-0.113 0.224,-0.155c0.071,-0.043 0.133,-0.082 0.187,-0.112c0.056,-0.026 0.103,-0.048 0.142,-0.066c0.076,-0.036 0.117,-0.055 0.117,-0.055l0.017,0.031Z" style="fill:#d1d3d4;fill-rule:nonzero;"/><path d="M52.254,45.747c0,0 -0.212,0.674 -0.496,1.691c-0.069,0.255 -0.144,0.531 -0.223,0.822c-0.075,0.293 -0.159,0.6 -0.237,0.92c-0.08,0.319 -0.161,0.649 -0.238,0.985c-0.081,0.336 -0.154,0.677 -0.228,1.019c-0.079,0.341 -0.143,0.684 -0.213,1.021c-0.069,0.337 -0.123,0.669 -0.183,0.99c-0.054,0.321 -0.097,0.632 -0.143,0.927c-0.039,0.295 -0.068,0.574 -0.099,0.831c-0.029,0.258 -0.039,0.493 -0.057,0.702c-0.019,0.209 -0.02,0.39 -0.022,0.539c-0.005,0.299 -0.008,0.469 -0.008,0.469l-0.037,0.006c0,0 -0.005,-0.042 -0.015,-0.121c-0.01,-0.079 -0.027,-0.194 -0.041,-0.343c-0.015,-0.149 -0.038,-0.33 -0.037,-0.54c-0.004,-0.209 -0.016,-0.446 -0.006,-0.706c0.011,-0.26 0.019,-0.542 0.044,-0.841c0.03,-0.297 0.053,-0.613 0.099,-0.938c0.024,-0.163 0.048,-0.328 0.072,-0.495c0.024,-0.167 0.047,-0.337 0.082,-0.506c0.066,-0.34 0.126,-0.687 0.201,-1.031c0.079,-0.344 0.158,-0.688 0.244,-1.025c0.078,-0.338 0.179,-0.667 0.269,-0.987c0.086,-0.32 0.19,-0.627 0.281,-0.918c0.093,-0.291 0.19,-0.564 0.28,-0.816c0.18,-0.504 0.348,-0.92 0.473,-1.21c0.059,-0.145 0.114,-0.258 0.149,-0.335c0.035,-0.077 0.054,-0.117 0.054,-0.117l0.035,0.007Z" style="fill:#d1d3d4;fill-rule:nonzero;"/><path d="M55.226,32.971c0,0 0.021,0.026 0.053,0.084c0.017,0.028 0.032,0.065 0.05,0.109c0.019,0.043 0.041,0.093 0.054,0.153c0.015,0.06 0.039,0.124 0.05,0.197c0.01,0.075 0.022,0.155 0.034,0.24c0.009,0.086 0.005,0.181 0.009,0.279c0,0.049 0.003,0.099 0.002,0.151c-0.005,0.052 -0.01,0.105 -0.016,0.159c-0.012,0.109 -0.016,0.222 -0.036,0.34c-0.023,0.116 -0.047,0.237 -0.072,0.361c-0.014,0.063 -0.023,0.125 -0.041,0.189c-0.018,0.063 -0.036,0.126 -0.055,0.19c-0.036,0.129 -0.074,0.26 -0.113,0.393c-0.076,0.267 -0.156,0.542 -0.236,0.822c-0.078,0.28 -0.169,0.563 -0.258,0.846c-0.182,0.566 -0.365,1.131 -0.536,1.661c-0.175,0.529 -0.339,1.023 -0.48,1.446c-0.283,0.845 -0.472,1.409 -0.472,1.409l-0.035,-0.008c0,0 0.006,-0.037 0.018,-0.105c0.012,-0.069 0.026,-0.169 0.052,-0.296c0.025,-0.127 0.054,-0.282 0.094,-0.457c0.037,-0.176 0.079,-0.375 0.132,-0.59c0.051,-0.216 0.106,-0.449 0.173,-0.694c0.064,-0.246 0.131,-0.505 0.209,-0.771c0.076,-0.265 0.146,-0.541 0.233,-0.818c0.084,-0.277 0.17,-0.559 0.256,-0.841c0.093,-0.28 0.188,-0.56 0.271,-0.84c0.081,-0.28 0.18,-0.552 0.265,-0.817c0.045,-0.132 0.085,-0.263 0.132,-0.389c0.023,-0.064 0.045,-0.127 0.068,-0.189c0.016,-0.047 0.032,-0.115 0.048,-0.171c0.032,-0.116 0.062,-0.23 0.095,-0.341c0.029,-0.111 0.043,-0.217 0.065,-0.32c0.01,-0.052 0.019,-0.103 0.029,-0.153c0.007,-0.049 0.008,-0.096 0.013,-0.143c0.009,-0.094 0.023,-0.185 0.025,-0.268c-0.001,-0.083 -0.004,-0.161 -0.002,-0.235c0,-0.073 -0.013,-0.136 -0.018,-0.197c-0.005,-0.061 -0.018,-0.111 -0.027,-0.156c-0.009,-0.046 -0.017,-0.085 -0.029,-0.114c-0.018,-0.06 -0.035,-0.091 -0.034,-0.091l0.03,-0.025Z" style="fill:#d1d3d4;fill-rule:nonzero;"/><path d="M65.97,33.561c0,0 0.011,0.049 0.02,0.147c0.007,0.049 0.007,0.109 0.01,0.181c0,0.036 0.001,0.074 0.002,0.115c-0.003,0.042 -0.006,0.085 -0.009,0.132c-0.008,0.186 -0.046,0.412 -0.1,0.672c-0.036,0.129 -0.073,0.266 -0.113,0.41c-0.041,0.145 -0.108,0.29 -0.165,0.446c-0.031,0.077 -0.059,0.158 -0.095,0.237c-0.038,0.078 -0.077,0.158 -0.116,0.239c-0.039,0.081 -0.082,0.162 -0.124,0.246c-0.043,0.083 -0.084,0.169 -0.137,0.249c-0.101,0.164 -0.206,0.332 -0.312,0.504c-0.027,0.043 -0.054,0.087 -0.081,0.131l-0.092,0.123c-0.062,0.082 -0.125,0.165 -0.189,0.249c-0.063,0.084 -0.127,0.169 -0.192,0.255c-0.065,0.085 -0.128,0.173 -0.202,0.251c-0.141,0.164 -0.287,0.327 -0.437,0.49c-0.074,0.081 -0.148,0.163 -0.223,0.246c-0.08,0.076 -0.16,0.153 -0.24,0.231c-0.16,0.153 -0.322,0.308 -0.483,0.462c-0.083,0.075 -0.161,0.155 -0.248,0.224l-0.257,0.211c-0.172,0.139 -0.342,0.279 -0.512,0.417c-0.085,0.068 -0.169,0.137 -0.253,0.205c-0.086,0.066 -0.175,0.124 -0.262,0.185c-0.175,0.122 -0.347,0.242 -0.517,0.36c-0.169,0.118 -0.334,0.236 -0.5,0.345c-0.166,0.108 -0.335,0.202 -0.495,0.299c-0.322,0.195 -0.63,0.371 -0.913,0.533c-0.281,0.168 -0.556,0.286 -0.791,0.405c-0.237,0.118 -0.445,0.214 -0.616,0.295c-0.171,0.081 -0.307,0.139 -0.399,0.181c-0.092,0.042 -0.141,0.064 -0.141,0.064l-0.014,-0.032c0,0 0.186,-0.11 0.513,-0.301c0.163,-0.095 0.361,-0.211 0.589,-0.344c0.113,-0.067 0.234,-0.137 0.362,-0.211c0.128,-0.074 0.262,-0.153 0.397,-0.244c0.272,-0.178 0.567,-0.371 0.878,-0.576c0.155,-0.103 0.318,-0.203 0.478,-0.317c0.158,-0.116 0.32,-0.235 0.483,-0.356c0.165,-0.12 0.332,-0.243 0.501,-0.367c0.083,-0.064 0.17,-0.124 0.253,-0.19c0.082,-0.068 0.164,-0.136 0.246,-0.205c0.165,-0.137 0.331,-0.275 0.498,-0.414l0.25,-0.208c0.084,-0.07 0.16,-0.149 0.24,-0.223c0.159,-0.149 0.318,-0.298 0.476,-0.447c0.079,-0.074 0.158,-0.149 0.237,-0.223c0.073,-0.079 0.147,-0.158 0.22,-0.237c0.145,-0.157 0.29,-0.313 0.433,-0.468c0.074,-0.075 0.138,-0.158 0.202,-0.239c0.065,-0.081 0.129,-0.162 0.193,-0.242c0.064,-0.079 0.127,-0.159 0.189,-0.237l0.093,-0.117l0.083,-0.123c0.11,-0.162 0.217,-0.321 0.322,-0.475c0.055,-0.076 0.098,-0.157 0.142,-0.236c0.045,-0.078 0.088,-0.156 0.131,-0.232c0.043,-0.076 0.085,-0.151 0.127,-0.224c0.038,-0.075 0.07,-0.151 0.104,-0.224c0.064,-0.147 0.137,-0.285 0.186,-0.422c0.049,-0.137 0.095,-0.267 0.139,-0.39c0.07,-0.247 0.129,-0.465 0.153,-0.645c0.008,-0.045 0.015,-0.088 0.022,-0.128c0.004,-0.04 0.007,-0.078 0.01,-0.113c0.006,-0.069 0.013,-0.129 0.011,-0.176c0.003,-0.095 -0.002,-0.147 -0.002,-0.147l0.037,-0.007Z" style="fill:#d1d3d4;fill-rule:nonzero;"/><path d="M58.033,46.588c0,0 0.075,0.068 0.215,0.194c0.138,0.127 0.34,0.318 0.59,0.565c0.502,0.493 1.202,1.215 2.048,2.075c0.847,0.858 1.84,1.856 2.941,2.885c0.55,0.515 1.127,1.038 1.724,1.556c0.599,0.518 1.215,1.034 1.85,1.528c0.627,0.503 1.28,0.975 1.928,1.431c0.656,0.444 1.31,0.872 1.969,1.246c0.165,0.093 0.325,0.19 0.489,0.279c0.165,0.087 0.329,0.173 0.49,0.258c0.081,0.042 0.161,0.084 0.241,0.126c0.082,0.039 0.163,0.078 0.244,0.117c0.161,0.076 0.321,0.152 0.479,0.227c0.317,0.144 0.634,0.269 0.937,0.398c0.312,0.11 0.609,0.224 0.901,0.319c0.296,0.085 0.576,0.178 0.85,0.247c0.275,0.062 0.534,0.127 0.781,0.178c0.25,0.04 0.484,0.079 0.701,0.114c0.217,0.033 0.421,0.042 0.603,0.061c0.363,0.043 0.657,0.028 0.855,0.035c0.198,0.002 0.303,0.003 0.303,0.003l-0.003,0.038c0,0 -0.107,0.005 -0.307,0.014c-0.101,0.004 -0.225,0.01 -0.37,0.017c-0.147,0.012 -0.312,0.002 -0.498,-0.007c-0.185,-0.011 -0.393,-0.011 -0.615,-0.035c-0.221,-0.026 -0.461,-0.054 -0.716,-0.084c-0.253,-0.041 -0.52,-0.094 -0.803,-0.146c-0.143,-0.022 -0.281,-0.068 -0.426,-0.104c-0.145,-0.039 -0.293,-0.078 -0.444,-0.119c-0.299,-0.088 -0.604,-0.195 -0.924,-0.298c-0.31,-0.121 -0.637,-0.238 -0.963,-0.376c-0.649,-0.28 -1.329,-0.589 -1.992,-0.971c-0.672,-0.37 -1.343,-0.786 -2.007,-1.232c-0.657,-0.456 -1.318,-0.928 -1.953,-1.43c-0.637,-0.501 -1.253,-1.025 -1.852,-1.549c-0.148,-0.132 -0.296,-0.264 -0.444,-0.395c-0.147,-0.131 -0.288,-0.267 -0.431,-0.399c-0.286,-0.264 -0.563,-0.531 -0.835,-0.793c-0.272,-0.264 -0.539,-0.522 -0.793,-0.783c-0.253,-0.262 -0.5,-0.518 -0.74,-0.767c-0.48,-0.501 -0.925,-0.98 -1.336,-1.423c-0.205,-0.222 -0.403,-0.433 -0.587,-0.638c-0.182,-0.206 -0.356,-0.401 -0.519,-0.584c-0.327,-0.366 -0.612,-0.685 -0.85,-0.942c-0.24,-0.259 -0.424,-0.463 -0.556,-0.599c-0.131,-0.135 -0.201,-0.208 -0.201,-0.208l0.026,-0.029Z" style="fill:#d1d3d4;fill-rule:nonzero;"/><path d="M68.778,37.852c0,0 -0.282,0.713 -0.661,1.795c-0.377,1.081 -0.853,2.531 -1.221,3.997c-0.188,0.732 -0.348,1.469 -0.444,2.161c-0.048,0.346 -0.078,0.681 -0.084,0.996c-0.005,0.315 0.014,0.611 0.075,0.869c0.058,0.259 0.17,0.477 0.324,0.614c0.158,0.133 0.347,0.174 0.503,0.172c0.157,-0.003 0.283,-0.032 0.366,-0.055c0.084,-0.025 0.129,-0.038 0.129,-0.038l0.008,0.035c0,0 -0.045,0.02 -0.128,0.056c-0.085,0.034 -0.213,0.084 -0.387,0.104c-0.17,0.021 -0.401,0 -0.604,-0.146c-0.199,-0.144 -0.347,-0.387 -0.428,-0.664c-0.088,-0.277 -0.13,-0.588 -0.138,-0.916c-0.011,-0.328 0,-0.675 0.041,-1.031c0.039,-0.356 0.087,-0.723 0.161,-1.092c0.072,-0.37 0.156,-0.743 0.246,-1.115c0.097,-0.371 0.202,-0.74 0.31,-1.102c0.105,-0.362 0.231,-0.714 0.346,-1.055c0.115,-0.341 0.241,-0.668 0.361,-0.977c0.118,-0.309 0.239,-0.599 0.354,-0.865c0.226,-0.534 0.436,-0.972 0.588,-1.277c0.075,-0.153 0.14,-0.271 0.182,-0.352c0.043,-0.081 0.066,-0.124 0.066,-0.124l0.035,0.01Z" style="fill:#d1d3d4;fill-rule:nonzero;"/><path d="M71.964,48.937c0,0 -0.001,-0.034 -0.003,-0.1c-0.001,-0.065 -0.005,-0.161 0,-0.284c0.005,-0.122 0.009,-0.272 0.027,-0.442c0.012,-0.172 0.035,-0.365 0.065,-0.575c0.033,-0.21 0.064,-0.438 0.118,-0.678c0.025,-0.12 0.05,-0.243 0.076,-0.369c0.027,-0.126 0.064,-0.253 0.096,-0.384c0.066,-0.26 0.139,-0.528 0.226,-0.798c0.086,-0.27 0.182,-0.543 0.274,-0.816c0.107,-0.27 0.214,-0.539 0.319,-0.804c0.11,-0.264 0.233,-0.518 0.345,-0.767c0.117,-0.247 0.242,-0.48 0.357,-0.703c0.113,-0.224 0.239,-0.427 0.349,-0.617c0.216,-0.381 0.429,-0.684 0.574,-0.896c0.072,-0.107 0.135,-0.188 0.174,-0.244c0.041,-0.056 0.063,-0.086 0.063,-0.086l0.032,0.015c0,0 -0.065,0.128 -0.18,0.353c-0.058,0.112 -0.127,0.249 -0.207,0.405c-0.082,0.156 -0.164,0.336 -0.257,0.531c-0.091,0.195 -0.197,0.404 -0.295,0.63c-0.1,0.226 -0.205,0.464 -0.313,0.71c-0.102,0.249 -0.206,0.505 -0.313,0.766c-0.099,0.263 -0.2,0.53 -0.301,0.798c-0.095,0.268 -0.195,0.535 -0.284,0.801c-0.086,0.266 -0.176,0.527 -0.25,0.782c-0.039,0.127 -0.077,0.253 -0.114,0.375c-0.034,0.123 -0.067,0.243 -0.1,0.36c-0.066,0.234 -0.118,0.457 -0.171,0.662c-0.097,0.412 -0.167,0.756 -0.21,0.997c-0.042,0.241 -0.06,0.378 -0.06,0.378l-0.037,0Z" style="fill:#d1d3d4;fill-rule:nonzero;"/><path d="M79.85,39.049c0,0 -0.003,0.033 -0.013,0.096c-0.011,0.062 -0.029,0.153 -0.055,0.268c-0.051,0.23 -0.131,0.557 -0.227,0.949c-0.191,0.785 -0.448,1.831 -0.652,2.881c-0.106,0.525 -0.2,1.051 -0.258,1.543c-0.028,0.247 -0.048,0.485 -0.054,0.709c-0.003,0.224 0.003,0.436 0.043,0.62c0.035,0.183 0.113,0.348 0.247,0.403c0.065,0.026 0.138,0.029 0.204,0.011c0.066,-0.014 0.125,-0.041 0.177,-0.066c0.104,-0.055 0.182,-0.11 0.233,-0.149c0.051,-0.039 0.078,-0.059 0.078,-0.059l0.021,0.027c0,0 -0.024,0.026 -0.07,0.075c-0.047,0.048 -0.117,0.121 -0.225,0.196c-0.055,0.036 -0.119,0.076 -0.201,0.104c-0.08,0.033 -0.188,0.043 -0.293,0.013c-0.106,-0.031 -0.194,-0.107 -0.256,-0.193c-0.064,-0.087 -0.102,-0.187 -0.134,-0.289c-0.066,-0.205 -0.094,-0.428 -0.105,-0.663c-0.01,-0.235 -0.01,-0.482 0.011,-0.736c0.02,-0.253 0.04,-0.515 0.083,-0.778c0.04,-0.264 0.086,-0.531 0.135,-0.797c0.055,-0.266 0.116,-0.531 0.176,-0.79c0.058,-0.26 0.135,-0.514 0.201,-0.76c0.066,-0.245 0.142,-0.481 0.212,-0.704c0.069,-0.224 0.142,-0.434 0.21,-0.627c0.133,-0.388 0.259,-0.707 0.345,-0.931c0.043,-0.112 0.077,-0.2 0.1,-0.26c0.021,-0.059 0.03,-0.093 0.03,-0.093l0.037,0Z" style="fill:#d1d3d4;fill-rule:nonzero;"/><path d="M86.63,36.144c0,0 0.007,-0.053 0.02,-0.154c0.015,-0.1 0.032,-0.248 0.064,-0.435c0.061,-0.375 0.157,-0.91 0.3,-1.548c0.071,-0.319 0.15,-0.665 0.246,-1.029c0.094,-0.364 0.194,-0.749 0.313,-1.144c0.119,-0.395 0.236,-0.804 0.379,-1.216c0.14,-0.412 0.287,-0.83 0.442,-1.247c0.162,-0.414 0.33,-0.827 0.504,-1.232c0.173,-0.405 0.367,-0.796 0.557,-1.174c0.19,-0.378 0.396,-0.736 0.601,-1.069c0.203,-0.335 0.416,-0.642 0.627,-0.916c0.209,-0.275 0.422,-0.513 0.624,-0.711c0.201,-0.199 0.397,-0.352 0.564,-0.465c0.165,-0.116 0.31,-0.18 0.405,-0.225c0.097,-0.038 0.149,-0.058 0.149,-0.058l0.012,0.033c0,0 -0.048,0.026 -0.14,0.073c-0.088,0.052 -0.219,0.13 -0.369,0.254c-0.306,0.242 -0.69,0.658 -1.067,1.212c-0.379,0.552 -0.757,1.235 -1.115,1.985c-0.359,0.749 -0.696,1.565 -1.007,2.389c-0.63,1.644 -1.149,3.318 -1.509,4.577c-0.361,1.259 -0.564,2.105 -0.564,2.105l-0.036,-0.005Z" style="fill:#d1d3d4;fill-rule:nonzero;"/><path d="M85.881,39.055c0,0 -0.123,0.446 -0.275,1.119c-0.152,0.672 -0.335,1.572 -0.437,2.473c-0.054,0.45 -0.091,0.901 -0.079,1.317c0.006,0.208 0.021,0.408 0.057,0.591c0.036,0.182 0.089,0.35 0.172,0.481c0.08,0.134 0.198,0.222 0.32,0.256c0.123,0.033 0.242,0.018 0.336,-0.003c0.096,-0.022 0.17,-0.051 0.219,-0.073c0.049,-0.022 0.076,-0.034 0.076,-0.034l0.013,0.034c0,0 -0.025,0.017 -0.073,0.05c-0.023,0.018 -0.054,0.036 -0.091,0.057c-0.036,0.024 -0.08,0.044 -0.132,0.066c-0.102,0.04 -0.242,0.083 -0.408,0.06c-0.164,-0.021 -0.34,-0.123 -0.452,-0.276c-0.121,-0.149 -0.201,-0.333 -0.256,-0.531c-0.055,-0.197 -0.093,-0.408 -0.108,-0.627c-0.015,-0.219 -0.027,-0.445 -0.015,-0.674c0.011,-0.23 0.029,-0.461 0.052,-0.692c0.03,-0.232 0.067,-0.462 0.106,-0.687c0.036,-0.226 0.093,-0.447 0.142,-0.66c0.048,-0.213 0.108,-0.418 0.165,-0.611c0.054,-0.194 0.116,-0.376 0.174,-0.543c0.115,-0.334 0.23,-0.609 0.315,-0.8c0.041,-0.096 0.08,-0.17 0.105,-0.221c0.025,-0.051 0.038,-0.078 0.038,-0.078l0.036,0.006Z" style="fill:#d1d3d4;fill-rule:nonzero;"/><path d="M91.835,40.875c0,0 0.004,-0.032 0.012,-0.093c0.01,-0.059 0.019,-0.149 0.041,-0.26c0.021,-0.112 0.047,-0.247 0.086,-0.402c0.036,-0.154 0.08,-0.329 0.138,-0.517c0.056,-0.189 0.119,-0.393 0.2,-0.606c0.078,-0.213 0.161,-0.439 0.266,-0.667c0.103,-0.228 0.208,-0.466 0.336,-0.699c0.128,-0.234 0.262,-0.47 0.408,-0.701c0.077,-0.114 0.152,-0.228 0.235,-0.339c0.079,-0.112 0.162,-0.221 0.248,-0.328c0.166,-0.217 0.36,-0.41 0.546,-0.596c0.1,-0.088 0.193,-0.18 0.294,-0.257c0.105,-0.075 0.199,-0.156 0.305,-0.22c0.104,-0.065 0.201,-0.133 0.306,-0.18c0.051,-0.026 0.101,-0.051 0.151,-0.075c0.05,-0.022 0.101,-0.04 0.15,-0.059c0.049,-0.019 0.097,-0.037 0.143,-0.055c0.048,-0.014 0.096,-0.026 0.142,-0.036c0.045,-0.011 0.09,-0.022 0.133,-0.032c0.043,-0.009 0.086,-0.011 0.127,-0.017c0.081,-0.006 0.156,-0.023 0.226,-0.017c0.069,0.003 0.132,0.006 0.188,0.009c0.057,-0.001 0.105,0.012 0.147,0.021c0.042,0.009 0.077,0.017 0.106,0.023c0.056,0.013 0.086,0.02 0.086,0.02l-0.007,0.037c0,0 -0.031,0 -0.088,-0.001c-0.058,0.002 -0.141,-0.011 -0.25,0.001c-0.054,0.006 -0.113,0.013 -0.178,0.02c-0.066,0.005 -0.135,0.029 -0.21,0.045c-0.037,0.009 -0.076,0.015 -0.115,0.029c-0.039,0.015 -0.079,0.029 -0.12,0.044c-0.041,0.015 -0.083,0.031 -0.126,0.047c-0.041,0.02 -0.084,0.041 -0.128,0.062c-0.043,0.022 -0.088,0.042 -0.132,0.067c-0.043,0.027 -0.087,0.054 -0.132,0.081c-0.092,0.052 -0.179,0.119 -0.269,0.186c-0.093,0.063 -0.176,0.145 -0.268,0.22c-0.089,0.079 -0.173,0.167 -0.262,0.252c-0.169,0.181 -0.338,0.372 -0.494,0.58c-0.079,0.102 -0.157,0.208 -0.231,0.316c-0.076,0.106 -0.147,0.217 -0.218,0.328c-0.576,0.882 -1.012,1.838 -1.309,2.559c-0.294,0.724 -0.447,1.217 -0.447,1.217l-0.036,-0.007Z" style="fill:#d1d3d4;fill-rule:nonzero;"/><path d="M91.5,43.071c0,0 -0.001,0.056 0.007,0.155c0.007,0.099 0.026,0.239 0.062,0.401c0.038,0.162 0.097,0.348 0.199,0.521c0.099,0.174 0.246,0.336 0.435,0.433c0.091,0.055 0.195,0.084 0.298,0.11c0.106,0.019 0.213,0.028 0.319,0.024c0.105,-0.002 0.208,-0.017 0.306,-0.034c0.097,-0.022 0.19,-0.041 0.273,-0.069c0.085,-0.023 0.161,-0.051 0.229,-0.076c0.068,-0.023 0.127,-0.047 0.175,-0.068c0.096,-0.041 0.151,-0.064 0.151,-0.064l0.012,0.033c0,0 -0.045,0.05 -0.133,0.125c-0.043,0.039 -0.097,0.085 -0.163,0.128c-0.034,0.023 -0.069,0.047 -0.106,0.072c-0.038,0.026 -0.08,0.045 -0.123,0.069c-0.087,0.05 -0.186,0.093 -0.294,0.131c-0.109,0.035 -0.228,0.073 -0.356,0.084c-0.126,0.015 -0.263,0.021 -0.399,0.001c-0.136,-0.024 -0.273,-0.063 -0.395,-0.131c-0.122,-0.067 -0.233,-0.153 -0.318,-0.254c-0.089,-0.098 -0.155,-0.211 -0.204,-0.321c-0.052,-0.111 -0.079,-0.226 -0.1,-0.333c-0.023,-0.106 -0.028,-0.21 -0.029,-0.305c-0.002,-0.095 0.006,-0.182 0.018,-0.259c0.009,-0.077 0.026,-0.144 0.04,-0.199c0.029,-0.11 0.058,-0.171 0.058,-0.171l0.038,-0.003Z" style="fill:#d1d3d4;fill-rule:nonzero;"/><path d="M28.589,27.662c0,0 -0.023,-0.096 -0.065,-0.277c-0.019,-0.092 -0.053,-0.2 -0.073,-0.336c-0.022,-0.135 -0.043,-0.292 -0.066,-0.469c-0.018,-0.177 -0.025,-0.375 -0.04,-0.59c-0.009,-0.216 -0.001,-0.452 -0.002,-0.703c0.016,-0.252 0.026,-0.522 0.055,-0.806c0.036,-0.284 0.069,-0.584 0.132,-0.894c0.103,-0.624 0.278,-1.293 0.482,-1.998c0.216,-0.702 0.477,-1.437 0.803,-2.179c0.078,-0.187 0.169,-0.371 0.254,-0.559c0.085,-0.187 0.173,-0.376 0.27,-0.561c0.094,-0.187 0.189,-0.375 0.285,-0.564c0.104,-0.186 0.208,-0.372 0.312,-0.559c0.428,-0.743 0.889,-1.486 1.4,-2.198c0.249,-0.361 0.525,-0.703 0.789,-1.05c0.136,-0.171 0.277,-0.338 0.415,-0.506l0.207,-0.251l0.216,-0.243c0.143,-0.162 0.286,-0.322 0.429,-0.482c0.149,-0.154 0.297,-0.307 0.445,-0.459c0.074,-0.076 0.148,-0.151 0.221,-0.227c0.076,-0.073 0.152,-0.145 0.227,-0.217c0.151,-0.145 0.302,-0.287 0.45,-0.43c0.609,-0.553 1.222,-1.059 1.832,-1.497c0.151,-0.11 0.301,-0.218 0.448,-0.325c0.152,-0.101 0.301,-0.199 0.447,-0.297c0.148,-0.096 0.29,-0.194 0.434,-0.283c0.145,-0.086 0.288,-0.171 0.427,-0.254c0.14,-0.082 0.275,-0.168 0.411,-0.241c0.137,-0.073 0.27,-0.145 0.401,-0.212c0.131,-0.067 0.259,-0.132 0.383,-0.196c0.126,-0.057 0.248,-0.113 0.367,-0.167c0.119,-0.053 0.234,-0.105 0.345,-0.155c0.111,-0.051 0.218,-0.099 0.323,-0.137c0.209,-0.082 0.4,-0.156 0.573,-0.224c0.172,-0.072 0.33,-0.119 0.467,-0.161c0.136,-0.043 0.252,-0.08 0.346,-0.109c0.188,-0.059 0.288,-0.09 0.288,-0.09l0.008,0.035c0,0 -0.098,0.037 -0.283,0.107c-0.092,0.034 -0.206,0.077 -0.34,0.127c-0.134,0.051 -0.289,0.105 -0.457,0.183c-0.17,0.075 -0.358,0.157 -0.562,0.247c-0.103,0.042 -0.207,0.094 -0.315,0.149c-0.108,0.054 -0.22,0.11 -0.336,0.169c-0.116,0.058 -0.235,0.118 -0.358,0.18c-0.121,0.068 -0.244,0.138 -0.371,0.21c-0.127,0.072 -0.258,0.145 -0.391,0.221c-0.133,0.076 -0.264,0.164 -0.4,0.248c-0.136,0.086 -0.275,0.173 -0.416,0.263c-0.14,0.09 -0.278,0.192 -0.422,0.29c-0.142,0.099 -0.286,0.2 -0.433,0.303c-0.143,0.109 -0.288,0.22 -0.435,0.332c-0.59,0.446 -1.179,0.963 -1.774,1.512c-0.144,0.141 -0.29,0.284 -0.437,0.428c-0.074,0.072 -0.147,0.144 -0.221,0.217c-0.071,0.075 -0.143,0.15 -0.214,0.226c-0.144,0.151 -0.288,0.304 -0.432,0.457c-0.139,0.158 -0.279,0.317 -0.42,0.477l-0.21,0.24l-0.203,0.248c-0.134,0.166 -0.272,0.331 -0.406,0.499c-0.258,0.344 -0.527,0.681 -0.77,1.037c-0.505,0.699 -0.964,1.427 -1.389,2.157c-0.104,0.183 -0.207,0.366 -0.31,0.548c-0.097,0.185 -0.193,0.369 -0.289,0.552c-0.098,0.182 -0.186,0.366 -0.273,0.55c-0.086,0.183 -0.178,0.363 -0.258,0.546c-0.327,0.728 -0.605,1.445 -0.836,2.133c-0.22,0.689 -0.41,1.346 -0.528,1.959c-0.071,0.305 -0.109,0.6 -0.156,0.879c-0.04,0.28 -0.063,0.545 -0.089,0.794c-0.01,0.249 -0.028,0.482 -0.029,0.696c0.005,0.213 0.003,0.411 0.013,0.587c0.015,0.175 0.029,0.331 0.041,0.466c0.011,0.136 0.039,0.248 0.052,0.341c0.031,0.184 0.048,0.283 0.048,0.283l-0.037,0.01Z" style="fill:#d1d3d4;fill-rule:nonzero;"/><path d="M45.456,14.994c0,0 0.034,-0.023 0.099,-0.066c0.032,-0.022 0.071,-0.048 0.118,-0.079c0.044,-0.034 0.096,-0.071 0.153,-0.111c0.114,-0.083 0.251,-0.19 0.402,-0.314c0.152,-0.124 0.317,-0.273 0.495,-0.434c0.175,-0.166 0.361,-0.349 0.551,-0.547c0.193,-0.197 0.38,-0.419 0.577,-0.643c0.193,-0.228 0.381,-0.472 0.568,-0.721c0.186,-0.25 0.366,-0.511 0.528,-0.779c0.171,-0.264 0.324,-0.536 0.46,-0.81c0.137,-0.273 0.258,-0.545 0.36,-0.813c0.045,-0.135 0.094,-0.268 0.132,-0.399c0.02,-0.066 0.042,-0.13 0.059,-0.195c0.015,-0.064 0.031,-0.128 0.046,-0.191c0.035,-0.126 0.045,-0.249 0.072,-0.369c0.016,-0.119 0.033,-0.235 0.043,-0.347c0.014,-0.222 0.018,-0.427 0.008,-0.609c-0.007,-0.09 -0.016,-0.174 -0.021,-0.253c-0.012,-0.078 -0.023,-0.149 -0.033,-0.214c-0.017,-0.131 -0.047,-0.228 -0.06,-0.299c-0.016,-0.069 -0.024,-0.106 -0.024,-0.106l0.034,-0.019c0,0 0.014,0.034 0.041,0.099c0.023,0.066 0.072,0.156 0.106,0.284c0.019,0.063 0.04,0.132 0.063,0.208c0.016,0.079 0.034,0.163 0.053,0.254c0.019,0.091 0.025,0.191 0.039,0.295c0.014,0.103 0.011,0.216 0.018,0.332c0,0.116 -0.007,0.239 -0.013,0.365c-0.016,0.127 -0.022,0.258 -0.049,0.392c-0.041,0.27 -0.116,0.551 -0.205,0.84c-0.099,0.286 -0.209,0.581 -0.351,0.869c-0.139,0.29 -0.296,0.578 -0.471,0.856c-0.173,0.28 -0.364,0.548 -0.562,0.806c-0.196,0.258 -0.406,0.5 -0.612,0.73c-0.211,0.226 -0.418,0.442 -0.628,0.633c-0.206,0.194 -0.411,0.367 -0.603,0.521c-0.194,0.152 -0.376,0.286 -0.543,0.396c-0.166,0.112 -0.315,0.2 -0.439,0.271c-0.126,0.069 -0.225,0.12 -0.294,0.15c-0.068,0.033 -0.105,0.05 -0.105,0.05l-0.012,-0.033Z" style="fill:#d1d3d4;fill-rule:nonzero;"/><path d="M44.324,23.498c0,0 -0.019,0.218 -0.115,0.593c-0.049,0.188 -0.119,0.414 -0.212,0.669c-0.094,0.256 -0.219,0.539 -0.369,0.843c-0.15,0.303 -0.337,0.621 -0.548,0.949c-0.216,0.325 -0.46,0.659 -0.734,0.988c-0.275,0.326 -0.574,0.654 -0.899,0.963c-0.081,0.078 -0.163,0.156 -0.244,0.234c-0.085,0.074 -0.17,0.149 -0.255,0.224c-0.168,0.153 -0.348,0.293 -0.524,0.436c-0.176,0.145 -0.364,0.272 -0.545,0.408c-0.182,0.134 -0.372,0.254 -0.556,0.38c-0.374,0.241 -0.748,0.469 -1.118,0.671c-0.182,0.107 -0.367,0.199 -0.547,0.291c-0.181,0.092 -0.355,0.186 -0.531,0.264c-0.174,0.082 -0.343,0.16 -0.507,0.237c-0.165,0.073 -0.326,0.139 -0.479,0.205c-0.307,0.134 -0.592,0.24 -0.845,0.336c-0.126,0.048 -0.245,0.093 -0.354,0.135c-0.11,0.037 -0.211,0.072 -0.303,0.103c-0.366,0.125 -0.575,0.197 -0.575,0.197l-0.007,-0.036c0,0 0.051,-0.023 0.146,-0.068c0.096,-0.043 0.235,-0.111 0.413,-0.189c0.089,-0.039 0.188,-0.083 0.295,-0.131c0.107,-0.05 0.222,-0.104 0.345,-0.162c0.246,-0.115 0.523,-0.242 0.82,-0.392c0.149,-0.074 0.306,-0.148 0.465,-0.231c0.158,-0.085 0.323,-0.168 0.492,-0.256c0.17,-0.085 0.338,-0.185 0.512,-0.283c0.173,-0.1 0.354,-0.193 0.53,-0.303c0.177,-0.109 0.361,-0.21 0.539,-0.329c0.089,-0.059 0.179,-0.117 0.269,-0.176c0.09,-0.059 0.183,-0.114 0.272,-0.177c0.178,-0.125 0.362,-0.244 0.538,-0.376c0.174,-0.134 0.356,-0.26 0.525,-0.402c0.172,-0.138 0.348,-0.271 0.512,-0.418c0.083,-0.071 0.166,-0.143 0.249,-0.214c0.079,-0.075 0.159,-0.149 0.238,-0.223c0.161,-0.147 0.309,-0.303 0.462,-0.451c0.148,-0.152 0.291,-0.307 0.428,-0.461c0.27,-0.312 0.521,-0.623 0.744,-0.93c0.216,-0.31 0.416,-0.609 0.58,-0.896c0.161,-0.287 0.304,-0.556 0.415,-0.8c0.109,-0.245 0.2,-0.461 0.264,-0.643c0.063,-0.182 0.112,-0.326 0.139,-0.426c0.027,-0.099 0.038,-0.153 0.038,-0.153l0.037,0Z" style="fill:#d1d3d4;fill-rule:nonzero;"/><path d="M48.075,21.824c0,0 -0.022,-0.05 -0.074,-0.139c-0.051,-0.089 -0.135,-0.214 -0.25,-0.363c-0.116,-0.148 -0.271,-0.315 -0.467,-0.482c-0.196,-0.167 -0.44,-0.324 -0.724,-0.458c-0.287,-0.13 -0.618,-0.226 -0.981,-0.275c-0.364,-0.053 -0.762,-0.042 -1.174,0.002c-0.423,0.048 -0.872,0.129 -1.327,0.195c-0.457,0.072 -0.92,0.146 -1.384,0.219c-0.466,0.066 -0.931,0.132 -1.39,0.196c-0.459,0.066 -0.912,0.109 -1.35,0.156c-0.438,0.046 -0.863,0.074 -1.265,0.094c-0.402,0.022 -0.783,0.027 -1.132,0.02c-0.35,-0.002 -0.67,-0.027 -0.95,-0.057c-0.281,-0.028 -0.522,-0.076 -0.717,-0.121c-0.195,-0.045 -0.342,-0.099 -0.441,-0.137c-0.097,-0.04 -0.149,-0.062 -0.149,-0.062l0.016,-0.036c0,0 0.053,0.016 0.153,0.045c0.101,0.027 0.252,0.06 0.447,0.089c0.197,0.026 0.437,0.051 0.717,0.059c0.279,0.009 0.596,0.01 0.943,-0.005c1.389,-0.053 3.25,-0.321 5.107,-0.611c0.465,-0.069 0.93,-0.137 1.387,-0.205c0.458,-0.063 0.909,-0.126 1.345,-0.167c0.438,-0.037 0.861,-0.026 1.245,0.047c0.385,0.069 0.73,0.195 1.023,0.353c0.291,0.159 0.532,0.347 0.721,0.538c0.19,0.189 0.33,0.378 0.434,0.541c0.207,0.328 0.272,0.548 0.272,0.548l-0.035,0.016Z" style="fill:#d1d3d4;fill-rule:nonzero;"/><path d="M54.266,19.199c0,0 -0.043,0.019 -0.124,0.053c-0.079,0.036 -0.195,0.092 -0.337,0.176c-0.285,0.165 -0.671,0.447 -1.09,0.838c-0.419,0.391 -0.871,0.887 -1.309,1.453c-0.44,0.565 -0.867,1.199 -1.245,1.857c-0.381,0.656 -0.714,1.338 -0.948,1.998c-0.231,0.658 -0.368,1.304 -0.31,1.831c0.028,0.262 0.112,0.487 0.234,0.651c0.124,0.162 0.277,0.261 0.413,0.318c0.136,0.058 0.255,0.079 0.335,0.092c0.081,0.01 0.125,0.015 0.125,0.015l-0.008,0.037c0,0 -0.046,0.001 -0.131,0.002c-0.085,-0.003 -0.215,-0.004 -0.369,-0.051c-0.154,-0.045 -0.341,-0.133 -0.498,-0.305c-0.075,-0.087 -0.147,-0.19 -0.202,-0.31c-0.054,-0.119 -0.096,-0.254 -0.121,-0.396c-0.053,-0.286 -0.054,-0.606 -0.007,-0.936c0.042,-0.331 0.121,-0.675 0.233,-1.022c0.113,-0.347 0.243,-0.7 0.406,-1.048c0.161,-0.348 0.34,-0.694 0.532,-1.034c0.198,-0.336 0.409,-0.665 0.627,-0.982c0.215,-0.319 0.454,-0.616 0.686,-0.9c0.232,-0.285 0.475,-0.547 0.713,-0.786c0.236,-0.241 0.475,-0.455 0.703,-0.641c0.456,-0.376 0.88,-0.63 1.188,-0.768c0.153,-0.072 0.28,-0.112 0.364,-0.14c0.085,-0.023 0.13,-0.036 0.13,-0.036l0.01,0.034Z" style="fill:#d1d3d4;fill-rule:nonzero;"/><path d="M56.799,21.722c0,0 -0.123,0.416 -0.257,1.046c-0.132,0.63 -0.283,1.478 -0.299,2.316c-0.008,0.209 -0.004,0.418 0.01,0.621c0.005,0.102 0.022,0.2 0.031,0.299c0.018,0.096 0.031,0.193 0.055,0.285c0.024,0.091 0.045,0.182 0.079,0.265c0.017,0.042 0.029,0.085 0.048,0.124c0.02,0.039 0.039,0.077 0.058,0.115c0.036,0.077 0.091,0.138 0.133,0.205c0.057,0.054 0.103,0.116 0.162,0.157c0.061,0.041 0.113,0.088 0.177,0.111c0.061,0.028 0.116,0.058 0.177,0.068c0.06,0.012 0.113,0.034 0.167,0.035c0.054,0.004 0.103,0.007 0.147,0.01c0.09,0.004 0.162,-0.01 0.21,-0.011c0.049,-0.004 0.075,-0.006 0.075,-0.006l0.001,0.037c0,0 -0.027,0.008 -0.077,0.024c-0.025,0.008 -0.056,0.017 -0.093,0.028c-0.037,0.01 -0.081,0.028 -0.129,0.03c-0.05,0.006 -0.105,0.012 -0.165,0.019c-0.062,0.01 -0.124,-0.006 -0.195,-0.009c-0.072,-0.002 -0.142,-0.025 -0.219,-0.047c-0.081,-0.017 -0.148,-0.065 -0.226,-0.105c-0.078,-0.042 -0.141,-0.105 -0.216,-0.164c-0.031,-0.033 -0.061,-0.069 -0.092,-0.106c-0.031,-0.036 -0.062,-0.074 -0.086,-0.116c-0.026,-0.041 -0.052,-0.083 -0.078,-0.126c-0.026,-0.043 -0.045,-0.089 -0.068,-0.134c-0.048,-0.091 -0.075,-0.19 -0.108,-0.29c-0.057,-0.2 -0.106,-0.41 -0.124,-0.627c-0.02,-0.216 -0.029,-0.437 -0.025,-0.656c0.007,-0.22 0.028,-0.439 0.05,-0.654c0.021,-0.214 0.066,-0.425 0.104,-0.627c0.038,-0.202 0.089,-0.397 0.139,-0.58c0.048,-0.183 0.103,-0.355 0.158,-0.513c0.106,-0.315 0.217,-0.574 0.3,-0.752c0.039,-0.09 0.078,-0.159 0.102,-0.207c0.025,-0.047 0.038,-0.072 0.038,-0.072l0.036,0.007Z" style="fill:#d1d3d4;fill-rule:nonzero;"/><path d="M62.636,15.809c0,0 -0.065,-0.004 -0.169,-0.032c-0.105,-0.026 -0.249,-0.076 -0.406,-0.164c-0.077,-0.044 -0.164,-0.092 -0.242,-0.158c-0.084,-0.061 -0.166,-0.132 -0.245,-0.214c-0.042,-0.038 -0.077,-0.084 -0.114,-0.13c-0.037,-0.046 -0.074,-0.093 -0.109,-0.142c-0.062,-0.105 -0.131,-0.207 -0.178,-0.325l-0.07,-0.177c-0.026,-0.057 -0.033,-0.123 -0.05,-0.184c-0.015,-0.062 -0.028,-0.124 -0.037,-0.186c-0.004,-0.063 -0.008,-0.126 -0.013,-0.188c-0.001,-0.062 -0.012,-0.12 -0.004,-0.181c0.007,-0.061 0.014,-0.119 0.021,-0.177c0.008,-0.057 0.012,-0.111 0.022,-0.164c0.016,-0.053 0.032,-0.104 0.047,-0.152c0.03,-0.097 0.058,-0.184 0.094,-0.258c0.037,-0.074 0.075,-0.136 0.105,-0.187c0.061,-0.101 0.102,-0.154 0.102,-0.154l0.035,0.007c0,0 -0.014,0.059 -0.038,0.161c-0.012,0.052 -0.026,0.114 -0.043,0.185c-0.014,0.072 -0.017,0.153 -0.029,0.241c-0.004,0.044 -0.009,0.09 -0.015,0.138c0.001,0.047 0.003,0.095 0.004,0.145c0.001,0.05 0.002,0.102 0.003,0.154c0.002,0.052 0.015,0.104 0.022,0.157c0.008,0.053 0.017,0.107 0.025,0.161c0.015,0.053 0.03,0.106 0.045,0.159c0.026,0.109 0.072,0.211 0.116,0.313c0.039,0.105 0.101,0.198 0.15,0.296c0.061,0.09 0.115,0.183 0.18,0.264c0.063,0.081 0.126,0.16 0.192,0.228c0.062,0.071 0.129,0.131 0.188,0.189c0.123,0.111 0.229,0.2 0.307,0.256c0.078,0.058 0.126,0.086 0.126,0.086l-0.022,0.033Z" style="fill:#d1d3d4;fill-rule:nonzero;"/><path d="M68.777,17.196c0,0 -0.298,0.652 -0.698,1.647c-0.399,0.994 -0.902,2.33 -1.288,3.689c-0.196,0.679 -0.362,1.363 -0.455,2.008c-0.045,0.322 -0.074,0.634 -0.071,0.926c0.003,0.291 0.032,0.565 0.111,0.796c0.073,0.234 0.206,0.417 0.364,0.527c0.16,0.108 0.337,0.139 0.481,0.148c0.146,0.003 0.263,-0.011 0.342,-0.025c0.079,-0.015 0.121,-0.023 0.121,-0.023l0.005,0.036c0,0 -0.043,0.014 -0.123,0.041c-0.081,0.025 -0.202,0.06 -0.362,0.073c-0.157,0.008 -0.364,-0.001 -0.565,-0.112c-0.199,-0.11 -0.376,-0.314 -0.476,-0.569c-0.108,-0.253 -0.161,-0.546 -0.179,-0.855c-0.019,-0.309 -0.01,-0.635 0.029,-0.969c0.039,-0.335 0.087,-0.679 0.164,-1.024c0.075,-0.345 0.163,-0.693 0.258,-1.039c0.102,-0.345 0.212,-0.688 0.326,-1.023c0.11,-0.336 0.241,-0.66 0.363,-0.975c0.121,-0.315 0.253,-0.615 0.379,-0.899c0.123,-0.285 0.25,-0.55 0.37,-0.794c0.236,-0.489 0.455,-0.888 0.613,-1.165c0.077,-0.139 0.145,-0.246 0.189,-0.319c0.045,-0.073 0.069,-0.112 0.069,-0.112l0.033,0.012Z" style="fill:#d1d3d4;fill-rule:nonzero;"/><path d="M72.956,21.71c0,0 0.004,-0.032 0.01,-0.09c0.008,-0.059 0.015,-0.145 0.036,-0.254c0.018,-0.108 0.041,-0.241 0.077,-0.391c0.033,-0.151 0.074,-0.32 0.128,-0.504c0.053,-0.184 0.113,-0.383 0.19,-0.59c0.074,-0.208 0.157,-0.428 0.257,-0.65c0.1,-0.222 0.202,-0.454 0.328,-0.68c0.126,-0.227 0.256,-0.458 0.402,-0.681c0.148,-0.222 0.311,-0.437 0.478,-0.645c0.169,-0.207 0.355,-0.396 0.545,-0.57c0.096,-0.085 0.188,-0.173 0.291,-0.244c0.05,-0.037 0.099,-0.074 0.148,-0.11c0.051,-0.033 0.102,-0.065 0.152,-0.097c0.197,-0.131 0.401,-0.226 0.592,-0.296c0.093,-0.04 0.188,-0.062 0.276,-0.086c0.087,-0.025 0.172,-0.036 0.251,-0.046c0.157,-0.03 0.293,-0.018 0.402,-0.018c0.109,0.003 0.191,0.028 0.247,0.034c0.056,0.01 0.086,0.015 0.086,0.015l-0.006,0.038c0,0 -0.03,0.001 -0.086,0.002c-0.056,0.004 -0.138,-0.001 -0.243,0.012c-0.105,0.018 -0.234,0.028 -0.377,0.073c-0.073,0.019 -0.15,0.039 -0.229,0.073c-0.079,0.032 -0.164,0.059 -0.247,0.105c-0.083,0.043 -0.173,0.083 -0.258,0.14c-0.087,0.054 -0.178,0.109 -0.264,0.177c-0.044,0.032 -0.088,0.065 -0.133,0.098c-0.043,0.037 -0.086,0.074 -0.13,0.111c-0.09,0.073 -0.173,0.156 -0.259,0.24c-0.088,0.081 -0.166,0.176 -0.251,0.265c-0.081,0.093 -0.16,0.19 -0.24,0.287c-0.154,0.2 -0.305,0.406 -0.443,0.621c-0.142,0.212 -0.273,0.431 -0.398,0.649c-0.123,0.218 -0.239,0.436 -0.344,0.649c-0.212,0.427 -0.388,0.833 -0.529,1.185c-0.282,0.703 -0.423,1.184 -0.423,1.184l-0.036,-0.006Z" style="fill:#d1d3d4;fill-rule:nonzero;"/><path d="M80.674,21.603c0,0 -0.013,0.034 -0.038,0.098c-0.025,0.063 -0.061,0.158 -0.115,0.273c-0.054,0.117 -0.122,0.257 -0.206,0.415c-0.087,0.156 -0.182,0.336 -0.303,0.521c-0.06,0.093 -0.119,0.193 -0.185,0.292c-0.067,0.099 -0.14,0.199 -0.214,0.303c-0.146,0.209 -0.314,0.42 -0.49,0.636c-0.092,0.105 -0.186,0.212 -0.28,0.321c-0.047,0.054 -0.095,0.108 -0.143,0.163c-0.051,0.052 -0.103,0.104 -0.154,0.156c-0.105,0.104 -0.209,0.208 -0.314,0.313c-0.105,0.106 -0.219,0.202 -0.329,0.303c-0.114,0.097 -0.225,0.197 -0.34,0.291c-0.118,0.091 -0.235,0.181 -0.351,0.271c-0.226,0.187 -0.475,0.334 -0.707,0.487c-0.228,0.16 -0.469,0.278 -0.692,0.397c-0.112,0.058 -0.219,0.118 -0.326,0.17c-0.109,0.045 -0.214,0.089 -0.315,0.131c-0.202,0.083 -0.386,0.16 -0.553,0.215c-0.168,0.052 -0.315,0.091 -0.435,0.124c-0.12,0.035 -0.216,0.055 -0.28,0.071c-0.065,0.016 -0.099,0.024 -0.099,0.024l-0.009,-0.035c0,0 0.131,-0.056 0.359,-0.153c0.114,-0.049 0.253,-0.109 0.412,-0.177c0.158,-0.072 0.33,-0.169 0.521,-0.266c0.095,-0.05 0.194,-0.101 0.297,-0.155c0.099,-0.061 0.201,-0.123 0.307,-0.188c0.21,-0.13 0.435,-0.26 0.653,-0.423c0.22,-0.156 0.452,-0.312 0.671,-0.496c0.111,-0.089 0.223,-0.178 0.336,-0.268c0.11,-0.093 0.216,-0.192 0.325,-0.287c0.108,-0.097 0.22,-0.189 0.324,-0.29c0.104,-0.1 0.207,-0.2 0.31,-0.3c0.051,-0.05 0.102,-0.099 0.152,-0.149c0.049,-0.051 0.097,-0.102 0.145,-0.153c0.096,-0.102 0.191,-0.203 0.285,-0.302c0.178,-0.205 0.356,-0.4 0.512,-0.594c0.157,-0.194 0.305,-0.377 0.433,-0.553c0.133,-0.172 0.245,-0.337 0.347,-0.481c0.099,-0.146 0.185,-0.274 0.252,-0.381c0.136,-0.213 0.205,-0.339 0.205,-0.339l0.032,0.015Z" style="fill:#d1d3d4;fill-rule:nonzero;"/><path d="M84.771,15.88c0,0 0.007,-0.053 0.021,-0.152c0.015,-0.1 0.034,-0.246 0.067,-0.431c0.032,-0.185 0.071,-0.41 0.125,-0.667c0.052,-0.258 0.112,-0.548 0.188,-0.863c0.073,-0.316 0.158,-0.658 0.257,-1.017c0.097,-0.36 0.202,-0.74 0.326,-1.13c0.124,-0.389 0.245,-0.794 0.394,-1.199c0.143,-0.407 0.297,-0.818 0.456,-1.229c0.165,-0.408 0.339,-0.814 0.516,-1.213c0.177,-0.398 0.372,-0.783 0.563,-1.155c0.19,-0.372 0.392,-0.724 0.593,-1.054c0.197,-0.331 0.401,-0.636 0.599,-0.91c0.194,-0.277 0.392,-0.519 0.569,-0.73c0.092,-0.103 0.176,-0.201 0.256,-0.288c0.083,-0.086 0.162,-0.163 0.232,-0.233c0.135,-0.143 0.262,-0.236 0.34,-0.306c0.079,-0.068 0.122,-0.104 0.122,-0.104l0.024,0.025c0,0 -0.038,0.04 -0.11,0.115c-0.07,0.077 -0.182,0.181 -0.304,0.332c-0.062,0.074 -0.133,0.155 -0.206,0.246c-0.071,0.093 -0.148,0.193 -0.23,0.3c-0.158,0.218 -0.333,0.467 -0.509,0.748c-0.091,0.138 -0.178,0.287 -0.269,0.44c-0.093,0.152 -0.181,0.314 -0.273,0.479c-0.183,0.331 -0.365,0.686 -0.545,1.055c-0.18,0.37 -0.355,0.756 -0.528,1.15c-0.17,0.395 -0.338,0.799 -0.497,1.204c-0.648,1.62 -1.19,3.271 -1.561,4.513c-0.373,1.244 -0.58,2.079 -0.58,2.079l-0.036,-0.005Z" style="fill:#d1d3d4;fill-rule:nonzero;"/><path d="M72.72,12.72c0,0 0.145,-0.104 0.42,-0.261c0.137,-0.083 0.305,-0.167 0.5,-0.264c0.098,-0.048 0.202,-0.1 0.311,-0.154c0.11,-0.057 0.228,-0.099 0.35,-0.153c0.245,-0.104 0.511,-0.216 0.794,-0.326c0.285,-0.102 0.585,-0.207 0.899,-0.307c0.313,-0.099 0.635,-0.217 0.967,-0.293c0.332,-0.085 0.668,-0.171 1.005,-0.258c0.169,-0.039 0.338,-0.079 0.506,-0.118c0.168,-0.032 0.336,-0.065 0.503,-0.097c0.333,-0.066 0.662,-0.116 0.979,-0.172c0.317,-0.054 0.624,-0.107 0.916,-0.137c0.291,-0.034 0.567,-0.058 0.821,-0.08c0.508,-0.046 0.932,-0.069 1.228,-0.082c0.148,-0.009 0.264,-0.008 0.343,-0.011c0.08,-0.001 0.122,-0.002 0.122,-0.002l0.001,0.037c0,0 -0.674,0.112 -1.684,0.28c-0.252,0.042 -0.526,0.088 -0.815,0.136c-0.289,0.047 -0.593,0.119 -0.908,0.182c-0.315,0.065 -0.64,0.132 -0.97,0.201c-0.165,0.034 -0.332,0.068 -0.499,0.103c-0.167,0.041 -0.334,0.083 -0.501,0.124c-0.334,0.081 -0.669,0.163 -0.998,0.243c-0.33,0.074 -0.651,0.171 -0.963,0.26c-0.311,0.091 -0.612,0.178 -0.898,0.261c-0.283,0.095 -0.55,0.185 -0.797,0.268c-0.248,0.079 -0.471,0.169 -0.669,0.246c-0.199,0.078 -0.373,0.141 -0.511,0.206c-0.14,0.062 -0.251,0.109 -0.325,0.145c-0.074,0.037 -0.114,0.056 -0.114,0.056l-0.013,-0.033Z" style="fill:#d1d3d4;fill-rule:nonzero;"/><path d="M94.084,9.85c0,0 -1.459,-0.173 -2.936,-0.25c-0.369,-0.024 -0.738,-0.044 -1.085,-0.053c-0.174,-0.006 -0.342,-0.008 -0.502,-0.008c-0.159,-0.003 -0.311,0.001 -0.45,0.005c-0.14,0.001 -0.268,0.009 -0.382,0.017c-0.114,0.008 -0.213,0.013 -0.295,0.025c-0.163,0.021 -0.257,0.032 -0.257,0.032l-0.002,-0.037c0,0 0.024,-0.008 0.067,-0.025c0.044,-0.016 0.109,-0.044 0.193,-0.071c0.084,-0.03 0.185,-0.059 0.302,-0.085c0.058,-0.014 0.121,-0.029 0.187,-0.045c0.066,-0.015 0.134,-0.024 0.206,-0.036c0.072,-0.012 0.148,-0.024 0.226,-0.037c0.077,-0.013 0.156,-0.017 0.239,-0.026c0.164,-0.017 0.338,-0.035 0.515,-0.038c0.177,-0.005 0.362,-0.016 0.546,-0.009c0.185,0.003 0.371,0.011 0.558,0.018c0.186,0.012 0.37,0.031 0.553,0.047c0.182,0.013 0.358,0.047 0.529,0.069c0.172,0.023 0.335,0.057 0.49,0.087c0.155,0.03 0.3,0.064 0.433,0.099c0.134,0.032 0.255,0.067 0.362,0.1c0.108,0.031 0.2,0.065 0.276,0.091c0.076,0.025 0.134,0.052 0.175,0.068c0.04,0.016 0.061,0.025 0.061,0.025l-0.009,0.037Z" style="fill:#d1d3d4;fill-rule:nonzero;"/><path d="M83.98,19.127c0,0 -0.111,0.397 -0.242,0.997c-0.131,0.6 -0.283,1.404 -0.348,2.207c-0.037,0.4 -0.051,0.801 -0.02,1.168c0.03,0.366 0.108,0.703 0.263,0.935c0.076,0.117 0.172,0.202 0.272,0.253c0.099,0.053 0.2,0.071 0.283,0.078c0.085,0.005 0.152,-0.001 0.198,-0.008c0.046,-0.007 0.071,-0.011 0.071,-0.011l0.003,0.037c0,0 -0.026,0.01 -0.073,0.028c-0.048,0.018 -0.12,0.044 -0.217,0.056c-0.096,0.01 -0.22,0.013 -0.352,-0.033c-0.132,-0.043 -0.269,-0.13 -0.375,-0.258c-0.11,-0.125 -0.199,-0.281 -0.26,-0.454c-0.063,-0.172 -0.114,-0.358 -0.138,-0.554c-0.026,-0.195 -0.049,-0.396 -0.047,-0.602c-0.001,-0.206 0.008,-0.414 0.022,-0.622c0.02,-0.208 0.048,-0.414 0.079,-0.617c0.028,-0.203 0.077,-0.401 0.118,-0.592c0.04,-0.192 0.094,-0.375 0.145,-0.549c0.048,-0.173 0.104,-0.336 0.157,-0.485c0.104,-0.3 0.212,-0.545 0.291,-0.715c0.038,-0.085 0.076,-0.151 0.098,-0.196c0.024,-0.045 0.037,-0.069 0.037,-0.069l0.035,0.006Z" style="fill:#d1d3d4;fill-rule:nonzero;"/><path d="M4.878,60.559c0,0 0.015,-0.062 0.044,-0.178c0.03,-0.117 0.074,-0.287 0.138,-0.503c0.067,-0.215 0.142,-0.478 0.247,-0.774c0.051,-0.149 0.106,-0.308 0.163,-0.474c0.063,-0.166 0.128,-0.34 0.197,-0.522c0.136,-0.364 0.298,-0.753 0.473,-1.164c0.184,-0.408 0.364,-0.844 0.586,-1.282c0.107,-0.219 0.217,-0.443 0.327,-0.67c0.113,-0.225 0.233,-0.451 0.356,-0.678c0.238,-0.457 0.501,-0.911 0.761,-1.367l0.199,-0.339l0.208,-0.335c0.139,-0.222 0.277,-0.443 0.413,-0.663c0.133,-0.222 0.281,-0.433 0.424,-0.643c0.144,-0.21 0.285,-0.418 0.424,-0.622c0.137,-0.205 0.28,-0.402 0.424,-0.592c0.142,-0.191 0.282,-0.377 0.417,-0.559c0.265,-0.367 0.542,-0.696 0.793,-1.002c0.251,-0.305 0.478,-0.588 0.695,-0.826c0.214,-0.24 0.406,-0.445 0.562,-0.615c0.155,-0.17 0.283,-0.299 0.367,-0.39c0.085,-0.089 0.13,-0.137 0.13,-0.137l0.028,0.022c0,0 -0.164,0.205 -0.449,0.563c-0.143,0.18 -0.317,0.398 -0.516,0.647c-0.201,0.249 -0.408,0.543 -0.644,0.857c-0.234,0.315 -0.493,0.653 -0.744,1.026c-0.128,0.185 -0.26,0.374 -0.394,0.568c-0.135,0.194 -0.274,0.391 -0.405,0.598c-0.133,0.205 -0.269,0.413 -0.406,0.625c-0.137,0.211 -0.279,0.423 -0.41,0.643c-0.134,0.22 -0.269,0.441 -0.404,0.662l-0.203,0.333l-0.195,0.338c-0.26,0.451 -0.527,0.899 -0.767,1.351c-0.122,0.225 -0.244,0.447 -0.364,0.667c-0.114,0.223 -0.228,0.443 -0.339,0.659c-0.228,0.431 -0.424,0.857 -0.622,1.256c-0.187,0.403 -0.368,0.784 -0.522,1.139c-0.077,0.177 -0.152,0.348 -0.222,0.509c-0.068,0.163 -0.132,0.317 -0.193,0.462c-0.122,0.29 -0.218,0.546 -0.3,0.755c-0.161,0.421 -0.242,0.663 -0.242,0.663l-0.035,-0.008Z" style="fill:#d1d3d4;fill-rule:nonzero;"/><path d="M104.469,33.057c0,0 -0.328,0.707 -0.773,1.782c-0.445,1.075 -1.009,2.519 -1.46,3.988c-0.23,0.733 -0.432,1.473 -0.565,2.171c-0.132,0.696 -0.199,1.357 -0.122,1.896c0.037,0.269 0.121,0.502 0.242,0.674c0.125,0.169 0.288,0.264 0.435,0.306c0.148,0.043 0.275,0.043 0.36,0.041c0.086,-0.007 0.131,-0.01 0.131,-0.01l0,0.037c0,0 -0.047,0.01 -0.136,0.027c-0.089,0.013 -0.225,0.035 -0.393,0.003c-0.168,-0.028 -0.372,-0.116 -0.531,-0.298c-0.156,-0.182 -0.271,-0.434 -0.329,-0.72c-0.062,-0.285 -0.087,-0.602 -0.077,-0.935c0.01,-0.333 0.04,-0.684 0.1,-1.044c0.059,-0.359 0.126,-0.728 0.221,-1.1c0.093,-0.371 0.198,-0.746 0.31,-1.119c0.118,-0.371 0.245,-0.74 0.374,-1.101c0.125,-0.362 0.272,-0.713 0.408,-1.053c0.136,-0.339 0.281,-0.664 0.42,-0.97c0.136,-0.307 0.275,-0.594 0.406,-0.858c0.259,-0.529 0.497,-0.961 0.668,-1.261c0.083,-0.151 0.157,-0.267 0.204,-0.346c0.048,-0.08 0.074,-0.122 0.074,-0.122l0.033,0.012Z" style="fill:#d1d3d4;fill-rule:nonzero;"/><path d="M110.089,31.62l-0.571,2.288c-0.173,0.686 -0.376,1.486 -0.592,2.344c-0.11,0.428 -0.222,0.871 -0.337,1.321c-0.117,0.45 -0.237,0.907 -0.356,1.364c-0.244,0.913 -0.487,1.826 -0.716,2.682c-0.11,0.428 -0.23,0.84 -0.342,1.231c-0.113,0.391 -0.219,0.761 -0.317,1.102c-0.392,1.366 -0.653,2.276 -0.653,2.276l-0.035,-0.007c0,0 0.01,-0.058 0.03,-0.167c0.021,-0.109 0.046,-0.269 0.088,-0.471c0.08,-0.404 0.198,-0.98 0.356,-1.668c0.078,-0.344 0.163,-0.717 0.261,-1.109c0.094,-0.393 0.195,-0.808 0.298,-1.236c0.105,-0.43 0.205,-0.874 0.322,-1.323c0.115,-0.45 0.232,-0.907 0.349,-1.363c0.124,-0.456 0.248,-0.912 0.37,-1.361c0.119,-0.449 0.247,-0.889 0.365,-1.316c0.117,-0.427 0.241,-0.839 0.356,-1.229c0.114,-0.391 0.229,-0.76 0.336,-1.1c0.104,-0.34 0.207,-0.652 0.296,-0.928c0.087,-0.276 0.17,-0.516 0.237,-0.714c0.066,-0.198 0.124,-0.353 0.161,-0.459c0.037,-0.105 0.057,-0.162 0.057,-0.162l0.037,0.005Z" style="fill:#d1d3d4;fill-rule:nonzero;"/><path d="M104.799,50.411c0,0 -0.082,0.173 -0.226,0.476c-0.146,0.301 -0.36,0.731 -0.634,1.239c-0.551,1.012 -1.355,2.344 -2.374,3.525c-0.254,0.295 -0.527,0.573 -0.802,0.839c-0.282,0.259 -0.565,0.51 -0.861,0.721c-0.143,0.112 -0.296,0.206 -0.441,0.303c-0.148,0.091 -0.296,0.176 -0.441,0.254c-0.294,0.149 -0.579,0.275 -0.85,0.357c-0.068,0.021 -0.134,0.042 -0.199,0.062c-0.064,0.019 -0.129,0.03 -0.191,0.045c-0.125,0.028 -0.243,0.056 -0.355,0.065c-0.112,0.013 -0.216,0.033 -0.313,0.036c-0.096,0.002 -0.184,0.005 -0.264,0.008c-0.08,0.005 -0.151,-0.002 -0.212,-0.006c-0.061,-0.004 -0.113,-0.008 -0.155,-0.01c-0.084,-0.006 -0.129,-0.009 -0.129,-0.009l0.008,-0.037c0,0 0.046,-0.003 0.132,-0.009c0.086,-0.009 0.209,-0.009 0.367,-0.031c0.079,-0.012 0.166,-0.024 0.26,-0.038c0.094,-0.014 0.195,-0.042 0.302,-0.064c0.108,-0.019 0.22,-0.058 0.338,-0.095c0.059,-0.02 0.12,-0.035 0.181,-0.058c0.061,-0.023 0.123,-0.048 0.186,-0.073c0.127,-0.045 0.255,-0.11 0.387,-0.175c0.133,-0.058 0.264,-0.142 0.402,-0.215c0.134,-0.082 0.271,-0.169 0.407,-0.263c0.133,-0.101 0.275,-0.191 0.409,-0.303c0.276,-0.208 0.536,-0.462 0.804,-0.711c0.261,-0.26 0.521,-0.53 0.763,-0.82c0.127,-0.139 0.245,-0.286 0.367,-0.43c0.116,-0.148 0.236,-0.292 0.346,-0.442c0.225,-0.297 0.446,-0.593 0.651,-0.885c0.2,-0.295 0.4,-0.577 0.579,-0.852c0.179,-0.277 0.348,-0.538 0.504,-0.779c0.613,-0.983 1.021,-1.638 1.021,-1.638l0.033,0.013Z" style="fill:#d1d3d4;fill-rule:nonzero;"/><path d="M95.68,53.701c0,0 0.03,-0.058 0.092,-0.163c0.063,-0.104 0.153,-0.259 0.286,-0.446c0.131,-0.187 0.295,-0.414 0.501,-0.659c0.1,-0.125 0.213,-0.253 0.332,-0.389c0.121,-0.133 0.25,-0.272 0.39,-0.411c0.276,-0.285 0.595,-0.574 0.944,-0.864c0.352,-0.287 0.734,-0.579 1.149,-0.846c0.416,-0.266 0.853,-0.534 1.317,-0.755c0.116,-0.057 0.232,-0.113 0.349,-0.17c0.118,-0.051 0.237,-0.103 0.356,-0.155c0.236,-0.109 0.48,-0.193 0.722,-0.288c0.244,-0.086 0.491,-0.158 0.735,-0.237c0.246,-0.065 0.491,-0.133 0.736,-0.192c0.244,-0.051 0.487,-0.106 0.727,-0.144c0.241,-0.035 0.478,-0.073 0.711,-0.101c0.233,-0.022 0.462,-0.047 0.686,-0.064c0.223,-0.007 0.441,-0.014 0.654,-0.02c0.106,-0.005 0.21,-0.005 0.312,-0.001c0.103,0.002 0.203,0.005 0.302,0.007c0.198,0.007 0.389,0.013 0.57,0.032c0.18,0.016 0.354,0.031 0.519,0.046c0.165,0.015 0.317,0.046 0.462,0.066c0.29,0.042 0.541,0.083 0.743,0.132c0.204,0.044 0.362,0.085 0.47,0.11c0.108,0.025 0.165,0.039 0.165,0.039l-0.01,0.037c0,0 -0.236,-0.031 -0.649,-0.084c-0.205,-0.032 -0.46,-0.05 -0.75,-0.073c-0.146,-0.009 -0.3,-0.029 -0.464,-0.032c-0.165,-0.005 -0.338,-0.01 -0.518,-0.016c-0.18,-0.009 -0.37,-0.004 -0.565,0c-0.196,0.007 -0.398,0.001 -0.607,0.019c-0.209,0.016 -0.423,0.03 -0.643,0.046c-0.219,0.026 -0.443,0.054 -0.671,0.081c-0.228,0.033 -0.46,0.077 -0.694,0.116c-0.234,0.044 -0.47,0.103 -0.708,0.154c-0.238,0.06 -0.476,0.128 -0.715,0.193c-0.237,0.08 -0.477,0.151 -0.713,0.238c-0.235,0.09 -0.473,0.169 -0.703,0.273c-0.116,0.049 -0.232,0.098 -0.347,0.147c-0.114,0.054 -0.227,0.108 -0.34,0.162c-0.227,0.103 -0.444,0.226 -0.662,0.34c-0.215,0.121 -0.426,0.242 -0.63,0.368c-0.409,0.254 -0.79,0.522 -1.143,0.79c-0.349,0.272 -0.674,0.539 -0.956,0.804c-0.573,0.523 -1.004,1.009 -1.288,1.36c-0.285,0.351 -0.424,0.568 -0.424,0.568l-0.03,-0.018Z" style="fill:#d1d3d4;fill-rule:nonzero;"/><path d="M12.231,44.164c0,0 0.092,-0.686 0.229,-1.714c0.032,-0.255 0.067,-0.532 0.104,-0.824c0.035,-0.292 0.068,-0.6 0.103,-0.917c0.038,-0.317 0.057,-0.644 0.09,-0.975c0.012,-0.166 0.024,-0.332 0.036,-0.5c0.006,-0.167 0.016,-0.334 0.021,-0.501c0.014,-0.334 0.023,-0.667 0.011,-0.99c-0.008,-0.325 -0.021,-0.642 -0.053,-0.944c-0.012,-0.152 -0.043,-0.295 -0.057,-0.441c-0.023,-0.143 -0.05,-0.28 -0.076,-0.415c-0.036,-0.13 -0.066,-0.26 -0.103,-0.381c-0.041,-0.118 -0.072,-0.24 -0.119,-0.345c-0.089,-0.215 -0.188,-0.402 -0.289,-0.562c-0.055,-0.075 -0.108,-0.145 -0.155,-0.213c-0.052,-0.062 -0.105,-0.115 -0.152,-0.166c-0.046,-0.051 -0.089,-0.095 -0.131,-0.127c-0.042,-0.034 -0.077,-0.064 -0.106,-0.087c-0.058,-0.048 -0.089,-0.074 -0.089,-0.074l0.02,-0.034c0,0 0.035,0.02 0.1,0.059c0.033,0.019 0.073,0.043 0.121,0.07c0.023,0.015 0.05,0.028 0.075,0.046c0.025,0.02 0.051,0.041 0.078,0.063c0.054,0.046 0.117,0.093 0.18,0.149c0.058,0.062 0.12,0.13 0.187,0.202c0.066,0.073 0.121,0.163 0.186,0.252c0.067,0.088 0.114,0.196 0.176,0.301c0.061,0.106 0.102,0.228 0.157,0.348c0.05,0.123 0.088,0.256 0.134,0.39c0.036,0.138 0.073,0.279 0.106,0.426c0.026,0.148 0.061,0.298 0.08,0.454c0.02,0.157 0.045,0.314 0.055,0.477c0.007,0.081 0.014,0.163 0.021,0.245c0.003,0.083 0.007,0.166 0.011,0.249c0.017,0.333 0.012,0.675 0.003,1.017c-0.006,0.171 -0.019,0.342 -0.028,0.513c-0.015,0.171 -0.03,0.341 -0.044,0.509c-0.035,0.338 -0.074,0.67 -0.122,0.992c-0.045,0.321 -0.097,0.632 -0.15,0.926c-0.052,0.294 -0.108,0.571 -0.161,0.827c-0.216,1.025 -0.413,1.701 -0.413,1.701l-0.036,-0.006Z" style="fill:#d1d3d4;fill-rule:nonzero;"/></g></svg>